<svg width="330" height="238" viewBox="0 0 330 238" version="1.1" xmlns="http://www.w3.org/2000/svg" xmlns:xlink="http://www.w3.org/1999/xlink" xmlns:figma="http://www.figma.com/figma/ns">
<title>Group</title>
<desc>Created using Figma</desc>
<g id="Canvas" transform="translate(-4204 2622)" figma:type="canvas">
<g id="Group" figma:type="frame">
<g id="Ellipse 15" figma:type="ellipse">
<use xlink:href="#path0_fill" transform="translate(4257 -2589)" fill="#E8EAF2"/>
</g>
<g id="Rectangle 8" figma:type="rounded-rectangle">
<use xlink:href="#path1_fill" transform="translate(4226 -2530)" fill="#BBD7F0"/>
</g>
<g id="Rectangle 8" figma:type="rounded-rectangle">
<use xlink:href="#path1_fill" transform="translate(4238.5 -2517)" fill="#BBD7F0"/>
</g>
<g id="Rectangle 8" figma:type="rounded-rectangle">
<use xlink:href="#path1_fill" transform="translate(4245 -2485)" fill="#BBD7F0"/>
</g>
<g id="Rectangle 8" figma:type="rounded-rectangle">
<use xlink:href="#path2_fill" transform="translate(4204.5 -2485)" fill="#BBD7F0"/>
</g>
<g id="Subtract" figma:type="vector-operation">
<use xlink:href="#path3_fill" transform="translate(4279 -2501)" fill="#BBD7F0"/>
</g>
<g id="Rectangle 8" figma:type="rounded-rectangle">
<use xlink:href="#path1_fill" transform="translate(4289.43 -2593)" fill="#FFFFFF"/>
</g>
<g id="Rectangle 8" figma:type="rounded-rectangle">
<use xlink:href="#path1_fill" transform="translate(4295.93 -2561)" fill="#FFFFFF"/>
</g>
<g id="Rectangle 8" figma:type="rounded-rectangle">
<use xlink:href="#path1_fill" transform="translate(4380 -2476)" fill="#FFFFFF"/>
</g>
<g id="Rectangle 8" figma:type="rounded-rectangle">
<use xlink:href="#path1_fill" transform="translate(4400.39 -2491)" fill="#FFFFFF"/>
</g>
<g id="Rectangle 8" figma:type="rounded-rectangle">
<use xlink:href="#path2_fill" transform="translate(4255.43 -2561)" fill="#FFFFFF"/>
</g>
<g id="Subtract" figma:type="vector-operation">
<use xlink:href="#path4_fill" transform="translate(4309.93 -2577)" fill="#FFFFFF"/>
</g>
<g id="Rectangle 8" figma:type="rounded-rectangle">
<use xlink:href="#path5_fill" transform="matrix(-1 0 0 1 4507.28 -2447)" fill="#BBD7F0"/>
</g>
<g id="Rectangle 8" figma:type="rounded-rectangle">
<use xlink:href="#path5_fill" transform="matrix(-1 0 0 1 4491.74 -2434)" fill="#BBD7F0"/>
</g>
<g id="Rectangle 8" figma:type="rounded-rectangle">
<use xlink:href="#path5_fill" transform="matrix(-1 0 0 1 4483.66 -2402)" fill="#BBD7F0"/>
</g>
<g id="Rectangle 8" figma:type="rounded-rectangle">
<use xlink:href="#path6_fill" transform="matrix(-1 0 0 1 4534 -2402)" fill="#BBD7F0"/>
</g>
<g id="Subtract" figma:type="vector-operation">
<use xlink:href="#path7_fill" transform="matrix(-1 0 0 1 4439.46 -2418)" fill="#BBD7F0"/>
</g>
<g id="Group" figma:type="frame">
<g id="anounce" figma:type="frame">
<g id="Page-1" figma:type="frame">
<g id="iStock-486902554" figma:type="frame">
<g id="Group" figma:type="frame">
<g id="Fill-11" figma:type="vector">
<use xlink:href="#path8_fill" transform="matrix(0.587113 -0.809505 0.809505 0.587113 4279.13 -2438.03)" fill="#4F4F4F"/>
<mask id="mask0_outline_ins">
<use xlink:href="#path8_fill" fill="white" transform="matrix(0.587113 -0.809505 0.809505 0.587113 4279.13 -2438.03)"/>
</mask>
<g mask="url(#mask0_outline_ins)">
<use xlink:href="#path9_stroke_2x" transform="matrix(0.587113 -0.809505 0.809505 0.587113 4279.13 -2438.03)" fill="#4F4F4F"/>
</g>
</g>
<g id="Fill-12" figma:type="vector">
<use xlink:href="#path10_fill" transform="matrix(0.587113 -0.809505 0.809505 0.587113 4296.13 -2425.7)" fill="#4F4F4F"/>
<mask id="mask1_outline_ins">
<use xlink:href="#path10_fill" fill="white" transform="matrix(0.587113 -0.809505 0.809505 0.587113 4296.13 -2425.7)"/>
</mask>
<g mask="url(#mask1_outline_ins)">
<use xlink:href="#path11_stroke_2x" transform="matrix(0.587113 -0.809505 0.809505 0.587113 4296.13 -2425.7)" fill="#4F4F4F"/>
</g>
</g>
<g id="Fill-13" figma:type="vector">
<use xlink:href="#path12_fill" transform="matrix(0.587113 -0.809505 0.809505 0.587113 4288.62 -2432.38)" fill="#4F4F4F"/>
<mask id="mask2_outline_ins">
<use xlink:href="#path12_fill" fill="white" transform="matrix(0.587113 -0.809505 0.809505 0.587113 4288.62 -2432.38)"/>
</mask>
<g mask="url(#mask2_outline_ins)">
<use xlink:href="#path13_stroke_2x" transform="matrix(0.587113 -0.809505 0.809505 0.587113 4288.62 -2432.38)" fill="#4F4F4F"/>
</g>
</g>
<g id="Fill-14" figma:type="vector">
<use xlink:href="#path14_fill" transform="matrix(0.587113 -0.809505 0.809505 0.587113 4245 -2396.08)" fill="#4F4F4F"/>
<mask id="mask3_outline_ins">
<use xlink:href="#path14_fill" fill="white" transform="matrix(0.587113 -0.809505 0.809505 0.587113 4245 -2396.08)"/>
</mask>
<g mask="url(#mask3_outline_ins)">
<use xlink:href="#path15_stroke_2x" transform="matrix(0.587113 -0.809505 0.809505 0.587113 4245 -2396.08)" fill="#4F4F4F"/>
</g>
</g>
</g>
</g>
</g>
</g>
<g id="Vector 23" figma:type="vector">
<use xlink:href="#path16_stroke" transform="translate(4295.35 -2591)" fill="#4F4F4F"/>
</g>
</g>
<g id="Ellipse 13" figma:type="ellipse">
<use xlink:href="#path17_fill" transform="translate(4393.46 -2517)" fill="#FFFFFF"/>
<mask id="mask4_outline_ins">
<use xlink:href="#path17_fill" fill="white" transform="translate(4393.46 -2517)"/>
</mask>
<g mask="url(#mask4_outline_ins)">
<use xlink:href="#path18_stroke_2x" transform="translate(4393.46 -2517)" fill="#4F4F4F"/>
</g>
</g>
<g id="Ellipse 14" figma:type="ellipse">
<use xlink:href="#path19_fill" transform="translate(4397 -2514)" fill="#EC8172"/>
</g>
<g id="$10" figma:type="text">
<use xlink:href="#path20_fill" transform="matrix(0.991982 0.126376 -0.126376 0.991982 4379.22 -2511.5)" fill="#FFFFFF"/>
</g>
<g id="Subtract" figma:type="vector-operation">
<use xlink:href="#path21_fill" transform="translate(4397 -2514)" fill="#F29390"/>
</g>
<g id="group" figma:type="frame">
<g id="Page-1" figma:type="frame">
<g id="iStock-486902554" figma:type="frame">
<g id="Group-2" figma:type="frame">
<g id="Fill-102" figma:type="vector">
<use xlink:href="#path22_fill" transform="translate(4339.93 -2601)" fill="#4F4F4F"/>
<mask id="mask5_outline_ins">
<use xlink:href="#path22_fill" fill="white" transform="translate(4339.93 -2601)"/>
</mask>
<g mask="url(#mask5_outline_ins)">
<use xlink:href="#path23_stroke_2x" transform="translate(4339.93 -2601)"/>
</g>
</g>
<g id="Fill-103" figma:type="vector">
<use xlink:href="#path24_fill" transform="translate(4349.93 -2608)" fill="#4F4F4F"/>
<mask id="mask6_outline_ins">
<use xlink:href="#path24_fill" fill="white" transform="translate(4349.93 -2608)"/>
</mask>
<g mask="url(#mask6_outline_ins)">
<use xlink:href="#path25_stroke_2x" transform="translate(4349.93 -2608)"/>
</g>
</g>
<g id="Fill-104" figma:type="vector">
<use xlink:href="#path26_fill" transform="translate(4329.93 -2608)" fill="#4F4F4F"/>
<mask id="mask7_outline_ins">
<use xlink:href="#path26_fill" fill="white" transform="translate(4329.93 -2608)"/>
</mask>
<g mask="url(#mask7_outline_ins)">
<use xlink:href="#path27_stroke_2x" transform="translate(4329.93 -2608)"/>
</g>
</g>
<g id="Fill-105" figma:type="vector">
<use xlink:href="#path26_fill" transform="translate(4339.93 -2615)" fill="#4F4F4F"/>
<mask id="mask8_outline_ins">
<use xlink:href="#path26_fill" fill="white" transform="translate(4339.93 -2615)"/>
</mask>
<g mask="url(#mask8_outline_ins)">
<use xlink:href="#path27_stroke_2x" transform="translate(4339.93 -2615)"/>
</g>
</g>
<g id="Fill-106" figma:type="vector">
<use xlink:href="#path26_fill" transform="translate(4359.93 -2615)" fill="#4F4F4F"/>
<mask id="mask9_outline_ins">
<use xlink:href="#path26_fill" fill="white" transform="translate(4359.93 -2615)"/>
</mask>
<g mask="url(#mask9_outline_ins)">
<use xlink:href="#path27_stroke_2x" transform="translate(4359.93 -2615)"/>
</g>
</g>
<g id="Fill-107" figma:type="vector">
<use xlink:href="#path26_fill" transform="translate(4369.93 -2608)" fill="#4F4F4F"/>
<mask id="mask10_outline_ins">
<use xlink:href="#path26_fill" fill="white" transform="translate(4369.93 -2608)"/>
</mask>
<g mask="url(#mask10_outline_ins)">
<use xlink:href="#path27_stroke_2x" transform="translate(4369.93 -2608)"/>
</g>
</g>
<g id="Fill-108" figma:type="vector">
<use xlink:href="#path26_fill" transform="translate(4349.93 -2622)" fill="#4F4F4F"/>
<mask id="mask11_outline_ins">
<use xlink:href="#path26_fill" fill="white" transform="translate(4349.93 -2622)"/>
</mask>
<g mask="url(#mask11_outline_ins)">
<use xlink:href="#path27_stroke_2x" transform="translate(4349.93 -2622)"/>
</g>
</g>
<g id="Fill-109" figma:type="vector">
<use xlink:href="#path22_fill" transform="translate(4359.93 -2601)" fill="#4F4F4F"/>
<mask id="mask12_outline_ins">
<use xlink:href="#path22_fill" fill="white" transform="translate(4359.93 -2601)"/>
</mask>
<g mask="url(#mask12_outline_ins)">
<use xlink:href="#path23_stroke_2x" transform="translate(4359.93 -2601)"/>
</g>
</g>
<g id="Fill-110" figma:type="vector">
<use xlink:href="#path28_fill" transform="translate(4373.93 -2597)" fill="#4F4F4F"/>
<mask id="mask13_outline_ins">
<use xlink:href="#path28_fill" fill="white" transform="translate(4373.93 -2597)"/>
</mask>
<g mask="url(#mask13_outline_ins)">
<use xlink:href="#path29_stroke_2x" transform="translate(4373.93 -2597)"/>
</g>
</g>
<g id="Fill-111" figma:type="vector">
<use xlink:href="#path30_fill" transform="translate(4335.93 -2591)" fill="#4F4F4F"/>
<mask id="mask14_outline_ins">
<use xlink:href="#path30_fill" fill="white" transform="translate(4335.93 -2591)"/>
</mask>
<g mask="url(#mask14_outline_ins)">
<use xlink:href="#path31_stroke_2x" transform="translate(4335.93 -2591)"/>
</g>
</g>
<g id="Fill-112" figma:type="vector">
<use xlink:href="#path32_fill" transform="translate(4325.93 -2597)" fill="#4F4F4F"/>
<mask id="mask15_outline_ins">
<use xlink:href="#path32_fill" fill="white" transform="translate(4325.93 -2597)"/>
</mask>
<g mask="url(#mask15_outline_ins)">
<use xlink:href="#path33_stroke_2x" transform="translate(4325.93 -2597)"/>
</g>
</g>
<g id="Fill-113" figma:type="vector">
<use xlink:href="#path34_fill" transform="translate(4355.93 -2591)" fill="#4F4F4F"/>
<mask id="mask16_outline_ins">
<use xlink:href="#path34_fill" fill="white" transform="translate(4355.93 -2591)"/>
</mask>
<g mask="url(#mask16_outline_ins)">
<use xlink:href="#path35_stroke_2x" transform="translate(4355.93 -2591)"/>
</g>
</g>
</g>
</g>
</g>
</g>
<g id="Vector 24" figma:type="vector">
<use xlink:href="#path36_fill" transform="translate(4278.5 -2428.5)" fill="#DCECFB"/>
</g>
<g id="Vector 25" figma:type="vector">
<use xlink:href="#path37_stroke" transform="translate(4264.5 -2461.5)" fill="#4F4F4F"/>
</g>
<g id="Vector 26" figma:type="vector">
<use xlink:href="#path38_stroke" transform="translate(4308 -2416)" fill="#4F4F4F"/>
</g>
</g>
</g>
<defs>
<path id="path0_fill" d="M 182 91C 182 141.258 141.258 182 91 182C 40.7421 182 0 141.258 0 91C 0 40.7421 40.7421 0 91 0C 141.258 0 182 40.7421 182 91Z"/>
<path id="path1_fill" d="M 0 8C 0 3.58172 3.58172 0 8 0L 110 0C 114.418 0 118 3.58172 118 8C 118 12.4183 114.418 16 110 16L 8 16C 3.58172 16 0 12.4183 0 8Z"/>
<path id="path2_fill" d="M 0 8C 0 3.58172 3.58172 0 8 0L 26 0C 30.4183 0 34 3.58172 34 8C 34 12.4183 30.4183 16 26 16L 8 16C 3.58172 16 0 12.4183 0 8Z"/>
<path id="path3_fill" fill-rule="evenodd" d="M 0 16L 66 16C 61.5815 16 58 12.4182 58 8C 58 3.58179 61.5815 0 66 0L 0 0C 4.41846 0 8 3.58179 8 8C 8 12.4182 4.41846 16 0 16Z"/>
<path id="path4_fill" fill-rule="evenodd" d="M 0 16L 86 16C 81.5815 16 78 12.4182 78 8C 78 3.58179 81.5815 0 86 0L 0 0C 4.41846 0 8 3.58179 8 8C 8 12.4182 4.41846 16 0 16Z"/>
<path id="path5_fill" d="M 0 8C 0 3.58172 3.58172 0 8 0L 138.662 0C 143.081 0 146.662 3.58172 146.662 8C 146.662 12.4183 143.081 16 138.662 16L 8 16C 3.58172 16 0 12.4183 0 8Z"/>
<path id="path6_fill" d="M 0 8C 0 3.58172 3.58172 0 8 0L 34.2587 0C 38.677 0 42.2587 3.58172 42.2587 8C 42.2587 12.4183 38.677 16 34.2587 16L 8 16C 3.58172 16 0 12.4183 0 8Z"/>
<path id="path7_fill" fill-rule="evenodd" d="M 70.145 8C 70.145 3.58179 73.7266 0 78.145 0L 0 0C 4.41797 0 8 3.58179 8 8C 8 12.4182 4.41797 16 0 16L 78.145 16C 73.7266 16 70.145 12.4182 70.145 8Z"/>
<path id="path8_fill" fill-rule="evenodd" d="M 0.999776 3.00106C 1.10378 3.00106 1.21078 2.98506 1.31578 2.95006L 4.31578 1.95006C 4.83978 1.77406 5.12278 1.20806 4.94778 0.685056C 4.77278 0.161056 4.21177 -0.123943 3.68377 0.0520565L 0.683775 1.05206C 0.159775 1.22806 -0.123225 1.79406 0.0517746 2.31706C 0.190775 2.73606 0.580776 3.00106 0.999776 3.00106Z"/>
<path id="path9_stroke_2x" d="M 1.31578 2.95006L 0.99955 2.00137L 1.31578 2.95006ZM 4.31578 1.95006L 4.63201 2.89874L 4.63418 2.89801L 4.31578 1.95006ZM 4.94778 0.685056L 3.99928 1.00183L 3.99946 1.00237L 4.94778 0.685056ZM 3.68377 0.0520565L 3.36755 -0.896627L 3.68377 0.0520565ZM 0.683775 1.05206L 0.367546 0.103371L 0.365377 0.104099L 0.683775 1.05206ZM 0.0517746 2.31706L 1.00091 2.00219L 1.00009 1.99974L 0.0517746 2.31706ZM 0.999776 4.00106C 1.17792 3.9983 1.44371 3.95755 1.63201 3.89874L 0.99955 2.00137L 0.999776 2.00106L 0.999776 4.00106ZM 1.63201 3.89874L 4.63201 2.89874L 3.99955 1.00137L 0.99955 2.00137L 1.63201 3.89874ZM 4.63418 2.89801C 5.67862 2.54721 6.2471 1.41674 5.8961 0.367741L 3.99946 1.00237C 3.99989 1.00366 3.99944 1.00255 3.99958 1.00069C 3.99967 0.999567 3.99986 0.999705 3.99938 1.00066C 3.9989 1.00162 3.99848 1.00195 3.99871 1.00174C 3.99948 1.00106 3.99975 1.0013 3.99738 1.0021L 4.63418 2.89801ZM 5.89628 0.368286C 5.54801 -0.674525 4.42409 -1.24881 3.36755 -0.896627L 4 1.00074C 4.00366 0.999522 4.00354 1.00014 4.00128 0.999968C 3.99973 0.999847 3.99892 0.999474 3.99879 0.999405C 3.99869 0.999356 3.99847 0.999236 3.99814 0.998861C 3.99739 0.998005 3.99807 0.998221 3.99928 1.00183L 5.89628 0.368286ZM 3.36755 -0.896627L 0.367547 0.103373L 1 2.00074L 4 1.00074L 3.36755 -0.896627ZM 0.365377 0.104099C -0.679063 0.454904 -1.24755 1.58537 -0.896545 2.63437L 1.00009 1.99974C 0.999665 1.99846 1.00011 1.99957 0.999969 2.00142C 0.999881 2.00255 0.999696 2.00241 1.00017 2.00145C 1.00065 2.00049 1.00108 2.00016 1.00084 2.00037C 1.00007 2.00105 0.999801 2.00081 1.00217 2.00001L 0.365377 0.104099ZM -0.897361 2.63192C -0.618382 3.47288 0.163582 4.00106 0.999776 4.00106L 0.999776 2.00106C 1.00112 2.00106 1.0004 2.00129 0.999299 2.00052C 0.999155 2.00041 0.999653 2.00074 1.00039 2.00172C 1.00133 2.00298 1.00138 2.0036 1.00091 2.00219L -0.897361 2.63192Z"/>
<path id="path10_fill" fill-rule="evenodd" d="M 4.31578 1.05206L 1.31578 0.052057C 0.787778 -0.123943 0.226775 0.161056 0.0517746 0.685056C -0.123225 1.20806 0.159775 1.77406 0.683775 1.95006L 3.68377 2.95006C 3.78877 2.98506 3.89578 3.00106 3.99978 3.00106C 4.41878 3.00106 4.80878 2.73606 4.94778 2.31706C 5.12278 1.79406 4.83978 1.22806 4.31578 1.05206Z"/>
<path id="path11_stroke_2x" d="M 4.31578 1.05206L 4.63418 0.104097L 4.63201 0.103374L 4.31578 1.05206ZM 1.31578 0.052057L 1.63201 -0.896626L 1.31578 0.052057ZM 0.0517746 0.685056L 1.00009 1.00237L 1.00028 1.00183L 0.0517746 0.685056ZM 0.683775 1.95006L 0.365376 2.89802L 0.367547 2.89874L 0.683775 1.95006ZM 3.68377 2.95006L 4 2.00137L 3.68377 2.95006ZM 4.94778 2.31706L 3.99945 1.99974L 3.99864 2.00219L 4.94778 2.31706ZM 4.63201 0.103374L 1.63201 -0.896626L 0.99955 1.00074L 3.99955 2.00074L 4.63201 0.103374ZM 1.63201 -0.896626C 0.575467 -1.24881 -0.54846 -0.674525 -0.896728 0.368286L 1.00028 1.00183C 1.00148 0.998221 1.00216 0.998005 1.00141 0.998861C 1.00109 0.999237 1.00086 0.999356 1.00077 0.999405C 1.00063 0.999474 0.999819 0.999847 0.998276 0.999968C 0.996017 1.00015 0.995896 0.999522 0.99955 1.00074L 1.63201 -0.896626ZM -0.896545 0.367741C -1.24755 1.41674 -0.679063 2.54721 0.365377 2.89801L 1.00217 1.0021C 0.999801 1.0013 1.00007 1.00106 1.00084 1.00174C 1.00108 1.00195 1.00065 1.00162 1.00017 1.00066C 0.999696 0.999705 0.999881 0.999567 0.999969 1.00069C 1.00011 1.00255 0.999665 1.00366 1.00009 1.00237L -0.896545 0.367741ZM 0.367547 2.89874L 3.36755 3.89874L 4 2.00137L 1 1.00137L 0.367547 2.89874ZM 3.36755 3.89874C 3.55584 3.95755 3.82163 3.9983 3.99978 4.00106L 3.99978 2.00106L 4 2.00137L 3.36755 3.89874ZM 3.99978 4.00106C 4.83597 4.00106 5.61793 3.47288 5.89691 2.63192L 3.99864 2.00219C 3.99817 2.0036 3.99822 2.00298 3.99916 2.00172C 3.9999 2.00074 4.0004 2.00041 4.00025 2.00052C 3.99916 2.00129 3.99844 2.00106 3.99978 2.00106L 3.99978 4.00106ZM 5.8961 2.63437C 6.2471 1.58537 5.67862 0.454904 4.63418 0.1041L 3.99738 2.00001C 3.99975 2.00081 3.99948 2.00105 3.99871 2.00037C 3.99848 2.00016 3.9989 2.00049 3.99938 2.00145C 3.99986 2.00241 3.99967 2.00255 3.99958 2.00142C 3.99944 1.99957 3.99989 1.99846 3.99946 1.99974L 5.8961 2.63437Z"/>
<path id="path12_fill" fill-rule="evenodd" d="M 5 0L 1 0C 0.447 0 0 0.447 0 1C 0 1.553 0.447 2 1 2L 5 2C 5.553 2 6 1.553 6 1C 6 0.447 5.553 0 5 0Z"/>
<path id="path13_stroke_2x" d="M 5 -1L 1 -1L 1 1L 5 1L 5 -1ZM 1 -1C -0.105285 -1 -1 -0.105285 -1 1L 1 1L 1 -1ZM -1 1C -1 2.10528 -0.105285 3 1 3L 1 1L -1 1ZM 1 3L 5 3L 5 1L 1 1L 1 3ZM 5 3C 6.10528 3 7 2.10528 7 1L 5 1L 5 3ZM 7 1C 7 -0.105285 6.10528 -1 5 -1L 5 1L 7 1Z"/>
<path id="path14_fill" fill-rule="evenodd" d="M 48 0C 46.65 0 45.601 1.081 44.147 2.578C 41.277 5.533 36.941 9.998 27 10C 25.332 10 23.717 10.367 22.204 11L 15 11C 13.394 11 12.34 9.961 11.12 8.756C 9.81 7.465 8.327 6 6 6C 2.243 6 0 9.364 0 15C 0 20.636 2.243 24 6 24C 8.327 24 9.81 22.535 11.12 21.244C 12.132 20.245 13.033 19.369 14.227 19.096C 13.446 20.93 13 22.93 13 25C 13 32.72 19.28 39 27 39C 34.981 39 41 33.411 41 26C 41 25.655 40.99 25.315 40.972 24.982C 42.266 25.907 43.296 26.861 44.185 27.686C 45.579 28.978 46.681 30 48 30C 51.888 30 52 16.536 52 15.001C 52 13.465 51.888 0 48 0ZM 9.715 19.82C 8.53 20.99 7.506 22 6 22C 2.52 22 2 17.614 2 15C 2 12.386 2.52 8 6 8C 7.506 8 8.53 9.01 9.715 10.18C 11.055 11.502 12.572 13 15 13L 18.849 13C 17.467 14.104 16.264 15.459 15.314 17L 15 17C 12.572 17 11.055 18.498 9.715 19.82ZM 47.919 27.994C 47.378 27.919 46.524 27.129 45.545 26.22C 42.632 23.52 37.757 19 27 19C 23.691 19 21 21.691 21 25C 21 28.309 23.691 31 27 31C 30.309 31 33 28.309 33 25C 33 23.629 32.532 22.367 31.755 21.355C 34.674 21.805 36.974 22.643 38.818 23.637C 38.94 24.376 39 25.169 39 26C 39 32.272 33.841 37 27 37C 20.383 37 15 31.617 15 25C 15 18.076 20.607 12 27 11.998C 37.788 11.998 42.667 6.973 45.582 3.971C 46.517 3.008 47.402 2.096 47.921 2.008C 48.692 2.634 50 7.346 50 15.001C 50 22.66 48.69 27.373 47.919 27.994ZM 31 25C 31 27.205 29.206 29 27 29C 24.794 29 23 27.205 23 25C 23 22.795 24.794 21 27 21C 29.206 21 31 22.795 31 25Z"/>
<path id="path15_stroke_2x" d="M 44.147 2.578L 43.4297 1.88127L 43.4296 1.88129L 44.147 2.578ZM 27 10L 27 11L 27.0002 11L 27 10ZM 22.204 11L 22.204 12L 22.4048 12L 22.59 11.9225L 22.204 11ZM 11.12 8.756L 11.8227 8.04453L 11.8219 8.04375L 11.12 8.756ZM 11.12 21.244L 11.8219 21.9563L 11.8225 21.9557L 11.12 21.244ZM 14.227 19.096L 15.1471 19.4878L 15.9151 17.6842L 14.0041 18.1212L 14.227 19.096ZM 40.972 24.982L 41.5535 24.1685L 39.8612 22.9587L 39.9735 25.036L 40.972 24.982ZM 44.185 27.686L 43.5048 28.419L 43.5052 28.4194L 44.185 27.686ZM 9.715 19.82L 9.01269 19.1081L 9.01241 19.1084L 9.715 19.82ZM 9.715 10.18L 9.01241 10.8916L 9.01269 10.8919L 9.715 10.18ZM 18.849 13L 19.4731 13.7813L 21.703 12L 18.849 12L 18.849 13ZM 15.314 17L 15.314 18L 15.8723 18L 16.1652 17.5248L 15.314 17ZM 47.919 27.994L 47.7817 28.9845L 48.2097 29.0439L 48.5463 28.7728L 47.919 27.994ZM 45.545 26.22L 46.2254 25.4872L 46.2248 25.4866L 45.545 26.22ZM 31.755 21.355L 31.9074 20.3667L 29.4438 19.9869L 30.9618 21.964L 31.755 21.355ZM 38.818 23.637L 39.8046 23.4741L 39.7247 22.9897L 39.2925 22.7567L 38.818 23.637ZM 27 11.998L 27 10.998L 26.9997 10.998L 27 11.998ZM 45.582 3.971L 46.2994 4.66763L 46.2995 4.6676L 45.582 3.971ZM 47.921 2.008L 48.5513 1.23167L 48.2 0.94642L 47.7538 1.02207L 47.921 2.008ZM 48 -1C 47.0317 -1 46.225 -0.604209 45.5143 -0.0737461C 44.8399 0.433646 44.1566 1.13284 43.4297 1.88127L 44.8643 3.27473C 45.5914 2.52616 46.1596 1.93635 46.7107 1.529C 47.2255 1.14471 47.6183 1 48 1L 48 -1ZM 43.4296 1.88129C 40.6287 4.76519 36.5374 8.99808 26.9998 9L 27.0002 11C 37.3446 10.9979 41.9253 6.30081 44.8643 3.27471L 43.4296 1.88129ZM 27 9C 25.2205 9.00624 23.4121 9.41462 21.818 10.0775L 22.59 11.9225C 24.0219 11.3194 25.4435 10.9938 27 11L 27 9ZM 22.204 10L 15 10L 15 12L 22.204 12L 22.204 10ZM 15 10C 13.8717 10 13.1053 9.31137 11.8227 8.04453L 10.4173 9.46747C 11.5747 10.6106 12.9163 12 15 12L 15 10ZM 11.8219 8.04375C 10.5486 6.78893 8.79067 5 6 5L 6 7C 7.86333 7 9.07136 8.14107 10.4181 9.46825L 11.8219 8.04375ZM 6 5C 3.77434 5 1.9677 6.01893 0.759085 7.83178C -0.419959 9.60028 -1 12.0695 -1 15L 1 15C 1 12.2945 1.54146 10.2637 2.42316 8.94122C 3.2753 7.66307 4.46866 7 6 7L 6 5ZM -1 15C -1 17.9305 -0.419959 20.3997 0.759085 22.1682C 1.9677 23.9811 3.77434 25 6 25L 6 23C 4.46866 23 3.2753 22.3369 2.42316 21.0588C 1.54146 19.7363 1 17.7055 1 15L -1 15ZM 6 25C 8.79067 25 10.5486 23.2111 11.8219 21.9563L 10.4181 20.5317C 9.07136 21.8589 7.86333 23 6 23L 6 25ZM 11.8225 21.9557C 12.8804 20.9113 13.5822 20.2692 14.4499 20.0708L 14.0041 18.1212C 12.4838 18.4688 11.3836 19.5787 10.4175 20.5323L 11.8225 21.9557ZM 13.3069 18.7042C 12.494 20.624 12.006 22.8205 12 25L 14 25C 13.994 23.0395 14.398 21.236 15.1471 19.4878L 13.3069 18.7042ZM 12 25C 12 33.2723 18.7277 40 27 40L 27 38C 19.8323 38 14 32.1677 14 25L 12 25ZM 27 40C 35.4622 40 42 34.0318 42 26L 40 26C 40 32.7902 34.4998 38 27 38L 27 40ZM 42 26C 41.9999 25.6403 41.9891 25.2733 41.9705 24.928L 39.9735 25.036C 39.9909 25.3567 40.0001 25.6697 40 26L 42 26ZM 40.3905 25.7955C 41.6342 26.6821 42.6161 27.5943 43.5048 28.419L 44.8652 26.953C 43.9759 26.1277 42.8978 25.1319 41.5535 24.1685L 40.3905 25.7955ZM 43.5052 28.4194C 44.2022 29.0654 44.8836 29.6932 45.5592 30.155C 46.2578 30.6231 47.1421 30.9801 48 31L 48 29C 47.5389 29.0199 47.2127 28.8659 46.6821 28.5C 46.1284 28.1278 45.5618 27.5986 44.8648 26.9526L 43.5052 28.4194ZM 48 31C 49.638 31 50.6116 29.5884 51.1828 28.2698C 51.7742 26.893 52.185 25.0335 52.4477 23.2191C 52.9692 19.5937 53 15.7722 53 15.001L 51 15.001C 51 15.7648 50.9748 19.4429 50.4683 22.9331C 50.217 24.6766 49.8708 26.279 49.3477 27.4747C 48.8044 28.7286 48.306 29 48 29L 48 31ZM 53 15.001C 53 14.2293 52.9692 10.4074 52.4477 6.78153C 52.185 4.96698 51.7742 3.10726 51.1828 1.7304C 50.6116 0.41177 49.6381 -1 48 -1L 48 1C 48.3059 1 48.8044 1.27135 49.3477 2.52541C 49.8708 3.72124 50.217 5.32377 50.4683 7.06747C 50.9748 10.5581 51 14.2367 51 15.001L 53 15.001ZM 9.01241 19.1084C 7.75656 20.3484 7.02454 21 6 21L 6 23C 7.98746 23 9.30344 21.6316 10.4176 20.5316L 9.01241 19.1084ZM 6 21C 5.31918 21.0181 4.95885 20.868 4.55007 20.5081C 4.12453 20.167 3.87049 19.7418 3.62444 19.1113C 3.10457 17.8329 2.99931 16.2699 3 15L 1 15C 1.00069 16.3441 1.15543 18.2811 1.76556 19.8492C 2.08451 20.6419 2.61297 21.4766 3.26368 22.0395C 3.93115 22.5838 4.94082 22.9819 6 23L 6 21ZM 3 15C 2.99931 13.7301 3.10457 12.1671 3.62444 10.8887C 3.87049 10.2582 4.12453 9.83302 4.55007 9.49186C 4.95885 9.13201 5.31918 8.98194 6 9L 6 7C 4.94082 7.01806 3.93115 7.41624 3.26368 7.96046C 2.61297 8.52336 2.08451 9.35806 1.76556 10.1508C 1.15543 11.7189 1.00069 13.6559 1 15L 3 15ZM 6 9C 7.02454 9 7.75656 9.65164 9.01241 10.8916L 10.4176 9.4684C 9.30344 8.36836 7.98746 7 6 7L 6 9ZM 9.01269 10.8919C 10.3211 12.1827 12.1108 14 15 14L 15 12C 13.0332 12 11.7889 10.8213 10.4173 9.46813L 9.01269 10.8919ZM 15 14L 18.849 14L 18.849 12L 15 12L 15 14ZM 18.2249 12.2187C 16.7785 13.3787 15.4615 14.8624 14.4628 16.4752L 16.1652 17.5248C 17.0665 16.0556 18.1555 14.8293 19.4731 13.7813L 18.2249 12.2187ZM 15.314 16L 15 16L 15 18L 15.314 18L 15.314 16ZM 15 16C 12.1108 16 10.3211 17.8173 9.01269 19.1081L 10.4173 20.5319C 11.7889 19.1787 13.0332 18 15 18L 15 16ZM 48.0563 27.0035C 48.1246 26.991 47.8752 26.9224 47.5182 26.6367C 47.1441 26.3405 46.7146 25.9414 46.2254 25.4872L 44.8646 26.9528C 45.3544 27.4076 45.8414 27.858 46.2743 28.2028C 46.6623 28.511 47.2074 28.9049 47.7817 28.9845L 48.0563 27.0035ZM 46.2248 25.4866C 43.2333 22.7139 38.1241 18 27 18L 27 20C 37.3899 20 42.0307 24.3261 44.8652 26.9534L 46.2248 25.4866ZM 27 18C 23.1387 18 20 21.1387 20 25L 22 25C 22 22.2433 24.2433 20 27 20L 27 18ZM 20 25C 20 28.8613 23.1387 32 27 32L 27 30C 24.2433 30 22 27.7567 22 25L 20 25ZM 27 32C 30.8613 32 34 28.8613 34 25L 32 25C 32 27.7567 29.7567 30 27 30L 27 32ZM 34 25C 33.9843 23.4524 33.4072 21.8832 32.5482 20.746L 30.9618 21.964C 31.6568 22.8508 32.0157 23.8056 32 25L 34 25ZM 31.6026 22.3433C 34.4255 22.7736 36.5645 23.5553 38.3435 24.5173L 39.2925 22.7567C 37.3835 21.7307 34.9225 20.8364 31.9074 20.3667L 31.6026 22.3433ZM 37.8314 23.7999C 37.9471 24.4953 38.0007 25.2067 38 26L 40 26C 39.9993 25.1313 39.9329 24.2567 39.8046 23.4741L 37.8314 23.7999ZM 38 26C 38 31.6395 33.3725 36 27 36L 27 38C 34.3095 38 40 32.9045 40 26L 38 26ZM 27 36C 20.9353 36 16 31.0647 16 25L 14 25C 14 32.1693 19.8307 38 27 38L 27 36ZM 16 25C 16 18.5514 21.2332 12.9998 27.0003 12.998L 26.9997 10.998C 19.9808 11.0002 14 17.6006 14 25L 16 25ZM 27 12.998C 38.194 12.998 43.3183 7.73778 46.2994 4.66763L 44.8646 3.27437C 42.0157 6.20822 37.382 10.998 27 10.998L 27 12.998ZM 46.2995 4.6676C 46.767 4.18605 47.1965 3.74264 47.5731 3.40772C 47.7563 3.24396 47.8885 3.13604 48.0201 3.05024C 48.1512 2.96343 48.1644 2.981 48.0882 2.99393L 47.7538 1.02207C 47.4181 1.079 47.126 1.24357 46.916 1.3826C 46.7065 1.52265 46.4617 1.71941 46.2419 1.91503C 45.8125 2.29886 45.332 2.79295 44.8645 3.2744L 46.2995 4.6676ZM 47.2907 2.78433C 47.232 2.73671 47.2613 2.7389 47.351 2.9057C 47.4409 3.07087 47.5248 3.26675 47.629 3.56097C 47.8471 4.17147 48.063 4.98461 48.2674 6.05652C 48.6838 8.22841 49.0014 11.2262 49 15.001L 51 15.001C 50.9986 11.1208 50.6622 7.93509 50.2318 5.68073C 50.0129 4.53951 49.7572 3.57884 49.5133 2.89056C 49.3863 2.53539 49.2416 2.20064 49.1124 1.9584C 48.983 1.71779 48.8027 1.43579 48.5513 1.23167L 47.2907 2.78433ZM 49 15.001C 49.0014 18.7778 48.6833 21.7767 48.2665 23.9487C 48.0618 25.0206 47.8457 25.8333 47.6275 26.4432C 47.5233 26.7371 47.4394 26.9323 47.3496 27.0969C 47.2599 27.2633 47.2313 27.2638 47.2917 27.2152L 48.5463 28.7728C 48.7994 28.5689 48.9805 28.2863 49.11 28.0462C 49.2394 27.8042 49.3843 27.4696 49.5114 27.1146C 49.7556 26.4268 50.0116 25.4662 50.2308 24.3248C 50.6617 22.0703 50.9986 18.8832 51 15.001L 49 15.001ZM 30 25C 30 26.6529 28.6536 28 27 28L 27 30C 29.7584 30 32 27.7571 32 25L 30 25ZM 27 28C 25.3464 28 24 26.6529 24 25L 22 25C 22 27.7571 24.2416 30 27 30L 27 28ZM 24 25C 24 23.3471 25.3464 22 27 22L 27 20C 24.2416 20 22 22.2429 22 25L 24 25ZM 27 22C 28.6536 22 30 23.3471 30 25L 32 25C 32 22.2429 29.7584 20 27 20L 27 22Z"/>
<path id="path16_stroke" d="M -0.883349 150.712C -1.14221 151.2 -0.956576 151.805 -0.468716 152.064C 0.0191444 152.323 0.624484 152.137 0.883349 151.649L -0.883349 150.712ZM 40 136.181L 40.2149 135.204L 40 136.181ZM 76.5 126.181L 77.3031 126.777L 77.3323 126.737L 77.3575 126.695L 76.5 126.181ZM 140.15 56.5L 139.603 57.337L 140.15 56.5ZM 101.336 -0.982487C 100.794 -1.0854 100.27 -0.728946 100.167 -0.186334C 100.064 0.356279 100.421 0.879577 100.963 0.982487L 101.336 -0.982487ZM 2.33273 149.39C 2.66358 148.948 2.5733 148.321 2.13108 147.991C 1.68886 147.66 1.06217 147.75 0.731318 148.192L 2.33273 149.39ZM 4.74458 143.898C 4.33036 144.264 4.2907 144.896 4.65599 145.31C 5.02128 145.724 5.65321 145.764 6.06743 145.398L 4.74458 143.898ZM 10.4892 142.099C 10.9562 141.804 11.0957 141.187 10.8008 140.72C 10.506 140.253 9.88836 140.113 9.42138 140.408L 10.4892 142.099ZM 14.5623 137.669C 14.0573 137.893 13.8292 138.483 14.0528 138.988C 14.2765 139.493 14.8671 139.721 15.3721 139.498L 14.5623 137.669ZM 20.5809 137.625C 21.1127 137.476 21.4229 136.924 21.2738 136.393C 21.1247 135.861 20.5728 135.551 20.041 135.7L 20.5809 137.625ZM 25.748 134.534C 25.2003 134.605 24.8142 135.107 24.8856 135.655C 24.957 136.202 25.4589 136.589 26.0065 136.517L 25.748 134.534ZM 31.5304 136.195C 32.0827 136.202 32.536 135.76 32.543 135.208C 32.55 134.656 32.108 134.202 31.5558 134.195L 31.5304 136.195ZM 37.3515 134.672C 36.8055 134.589 36.2957 134.965 36.2129 135.511C 36.1301 136.057 36.5057 136.567 37.0517 136.649L 37.3515 134.672ZM 42.2792 137.644C 42.8236 137.737 43.3401 137.371 43.4328 136.826C 43.5255 136.282 43.1593 135.765 42.6148 135.673L 42.2792 137.644ZM 47.4467 136.244C 46.8955 136.208 46.4198 136.626 46.3841 137.177C 46.3483 137.728 46.7661 138.204 47.3172 138.24L 47.4467 136.244ZM 52.4043 138.281C 52.9559 138.254 53.3807 137.784 53.353 137.232C 53.3254 136.681 52.8558 136.256 52.3042 136.284L 52.4043 138.281ZM 57.1224 135.744C 56.5785 135.84 56.2155 136.358 56.3116 136.902C 56.4076 137.446 56.9264 137.809 57.4702 137.713L 57.1224 135.744ZM 62.425 136.497C 62.9513 136.329 63.2423 135.767 63.0749 135.241C 62.9075 134.714 62.3451 134.423 61.8188 134.591L 62.425 136.497ZM 66.308 132.809C 65.8105 133.049 65.6017 133.646 65.8415 134.144C 66.0814 134.641 66.6791 134.85 67.1766 134.61L 66.308 132.809ZM 71.611 132.045C 72.066 131.732 72.1812 131.109 71.8682 130.654C 71.5552 130.199 70.9326 130.084 70.4776 130.397L 71.611 132.045ZM 74.1631 127.349C 73.7745 127.742 73.7776 128.375 74.17 128.764C 74.5624 129.152 75.1955 129.149 75.5842 128.757L 74.1631 127.349ZM 78.7822 124.399C 79.08 123.934 78.9444 123.316 78.4793 123.018C 78.0142 122.72 77.3957 122.856 77.0979 123.321L 78.7822 124.399ZM 80.2013 118.735C 79.8807 119.185 79.9854 119.81 80.4351 120.13C 80.8848 120.451 81.5092 120.346 81.8298 119.896L 80.2013 118.735ZM 85.0926 115.538C 85.4339 115.104 85.3584 114.475 84.9242 114.134C 84.4899 113.793 83.8613 113.868 83.52 114.303L 85.0926 115.538ZM 87.0411 110.037C 86.6792 110.454 86.7239 111.085 87.141 111.447C 87.5581 111.809 88.1897 111.765 88.5517 111.348L 87.0411 110.037ZM 92.2199 107.341C 92.604 106.944 92.5937 106.311 92.1969 105.927C 91.8 105.542 91.167 105.553 90.7828 105.95L 92.2199 107.341ZM 94.7645 102.084C 94.3558 102.455 94.3255 103.088 94.6969 103.497C 95.0684 103.905 95.7008 103.936 96.1095 103.564L 94.7645 102.084ZM 100.245 100.084C 100.681 99.7462 100.761 99.1181 100.424 98.6813C 100.086 98.2445 99.4575 98.1644 99.0207 98.5024L 100.245 100.084ZM 103.601 95.3026C 103.132 95.5943 102.988 96.211 103.28 96.6799C 103.572 97.1489 104.188 97.2926 104.657 97.0009L 103.601 95.3026ZM 109.365 94.481C 109.869 94.2562 110.096 93.6651 109.871 93.1606C 109.646 92.6561 109.055 92.4294 108.551 92.6542L 109.365 94.481ZM 113.916 90.8207C 113.378 90.9464 113.044 91.4843 113.169 92.022C 113.295 92.5598 113.833 92.8939 114.371 92.7682L 113.916 90.8207ZM 119.556 92.204C 120.109 92.2172 120.567 91.7803 120.58 91.2282C 120.593 90.6761 120.156 90.2178 119.604 90.2046L 119.556 92.204ZM 125.276 91.1811C 124.751 91.0077 124.186 91.2922 124.012 91.8166C 123.839 92.3409 124.124 92.9066 124.648 93.0799L 125.276 91.1811ZM 129.274 95.0684C 129.788 95.2702 130.368 95.0171 130.57 94.503C 130.772 93.9889 130.519 93.4085 130.005 93.2067L 129.274 95.0684ZM 134.284 94.3214C 133.736 94.2594 133.241 94.6541 133.179 95.2029C 133.117 95.7517 133.511 96.2468 134.06 96.3087L 134.284 94.3214ZM 139.088 95.9061C 139.617 95.7462 139.915 95.188 139.755 94.6594C 139.596 94.1308 139.037 93.8319 138.509 93.9918L 139.088 95.9061ZM 142.127 91.8824C 141.724 92.259 141.701 92.8918 142.078 93.2958C 142.455 93.6997 143.087 93.7218 143.491 93.3452L 142.127 91.8824ZM 146.477 89.3384C 146.734 88.8492 146.545 88.2448 146.056 87.9885C 145.567 87.7321 144.962 87.9209 144.706 88.4101L 146.477 89.3384ZM 146.289 84.2495C 146.148 84.7834 146.465 85.3309 146.999 85.4726C 147.533 85.6142 148.081 85.2963 148.222 84.7625L 146.289 84.2495ZM 149.064 79.997C 149.117 79.4473 148.715 78.9584 148.165 78.905C 147.616 78.8517 147.127 79.254 147.073 79.8037L 149.064 79.997ZM 147.198 75.2596C 147.22 75.8114 147.685 76.2411 148.237 76.2194C 148.789 76.1976 149.218 75.7326 149.197 75.1808L 147.198 75.2596ZM 148.694 70.394C 148.6 69.8498 148.082 69.4846 147.538 69.5785C 146.994 69.6723 146.629 70.1896 146.723 70.7339L 148.694 70.394ZM 145.638 66.3327C 145.81 66.8575 146.375 67.1434 146.9 66.9712C 147.425 66.7991 147.711 66.2341 147.539 65.7094L 145.638 66.3327ZM 145.612 61.2368C 145.344 60.7538 144.736 60.5795 144.253 60.8475C 143.77 61.1154 143.596 61.7241 143.863 62.207L 145.612 61.2368ZM 141.256 58.6834C 141.649 59.0717 142.282 59.0681 142.67 58.6753C 143.058 58.2826 143.055 57.6494 142.662 57.2612L 141.256 58.6834ZM 139.169 54.2188C 138.845 53.7718 138.22 53.6724 137.773 53.9967C 137.326 54.3211 137.226 54.9464 137.551 55.3934L 139.169 54.2188ZM 135.787 50.2965C 135.848 50.8455 136.341 51.2416 136.89 51.1814C 137.439 51.1211 137.836 50.6272 137.775 50.0782L 135.787 50.2965ZM 137.749 45.3067C 137.783 44.7555 137.363 44.281 136.812 44.247C 136.261 44.213 135.786 44.6323 135.752 45.1835L 137.749 45.3067ZM 136.173 40.2243C 136.122 40.7742 136.526 41.2614 137.076 41.3125C 137.626 41.3636 138.113 40.9592 138.164 40.4093L 136.173 40.2243ZM 138.55 35.4363C 138.579 34.8848 138.155 34.4142 137.604 34.3853C 137.052 34.3563 136.582 34.7799 136.553 35.3315L 138.55 35.4363ZM 136.599 30.4839C 136.622 31.0357 137.088 31.464 137.64 31.4407C 138.192 31.4173 138.62 30.951 138.597 30.3992L 136.599 30.4839ZM 138.031 25.344C 137.928 24.8015 137.404 24.4458 136.861 24.5494C 136.319 24.653 135.963 25.1767 136.067 25.7192L 138.031 25.344ZM 134.751 21.1578C 134.955 21.6709 135.537 21.921 136.05 21.7165C 136.563 21.512 136.813 20.9303 136.608 20.4173L 134.751 21.1578ZM 134.211 15.8622C 133.904 15.4033 133.283 15.2805 132.824 15.5878C 132.365 15.8951 132.242 16.5163 132.549 16.9751L 134.211 15.8622ZM 129.533 13.3286C 129.924 13.7184 130.557 13.7171 130.947 13.3258C 131.337 12.9345 131.336 12.3013 130.944 11.9116L 129.533 13.3286ZM 127.051 8.63998C 126.601 8.31897 125.977 8.42306 125.656 8.87247C 125.335 9.32188 125.439 9.94643 125.888 10.2674L 127.051 8.63998ZM 121.767 7.72256C 122.254 7.98337 122.86 7.80015 123.12 7.31333C 123.381 6.82651 123.198 6.22043 122.711 5.95962L 121.767 7.72256ZM 118.187 3.824C 117.677 3.61179 117.092 3.85311 116.88 4.363C 116.667 4.87289 116.909 5.45826 117.419 5.67047L 118.187 3.824ZM 112.864 3.98362C 113.389 4.15638 113.954 3.87119 114.127 3.34662C 114.3 2.82206 114.014 2.25676 113.49 2.08399L 112.864 3.98362ZM 108.693 0.66914C 108.159 0.52837 107.612 0.847181 107.471 1.38122C 107.33 1.91527 107.649 2.46231 108.183 2.60308L 108.693 0.66914ZM 103.424 1.4762C 103.964 1.59075 104.495 1.24564 104.61 0.705369C 104.724 0.165095 104.379 -0.365749 103.839 -0.480305L 103.424 1.4762ZM 0.883349 151.649C 1.27444 150.911 1.74563 150.174 2.33273 149.39L 0.731318 148.192C 0.101314 149.035 -0.452825 149.902 -0.883349 150.712L 0.883349 151.649ZM 6.06743 145.398C 7.37722 144.242 8.83613 143.142 10.4892 142.099L 9.42138 140.408C 7.69918 141.497 6.1128 142.693 4.74458 143.898L 6.06743 145.398ZM 15.3721 139.498C 17.0191 138.768 18.7367 138.142 20.5809 137.625L 20.041 135.7C 18.1239 136.238 16.2714 136.913 14.5623 137.669L 15.3721 139.498ZM 26.0065 136.517C 27.7972 136.283 29.6175 136.17 31.5304 136.195L 31.5558 134.195C 29.5682 134.171 27.6059 134.292 25.748 134.534L 26.0065 136.517ZM 37.0517 136.649C 37.9584 136.787 38.8589 136.953 39.7851 137.157L 40.2149 135.204C 39.2558 134.993 38.2903 134.815 37.3515 134.672L 37.0517 136.649ZM 39.7851 137.157C 40.6253 137.342 41.4645 137.506 42.2792 137.644L 42.6148 135.673C 41.8235 135.538 41.0313 135.384 40.2149 135.204L 39.7851 137.157ZM 47.3172 138.24C 49.0735 138.353 50.7888 138.362 52.4043 138.281L 52.3042 136.284C 50.7439 136.362 49.1434 136.354 47.4467 136.244L 47.3172 138.24ZM 57.4702 137.713C 59.2159 137.404 60.8898 136.985 62.425 136.497L 61.8188 134.591C 60.3432 135.061 58.7985 135.448 57.1224 135.744L 57.4702 137.713ZM 67.1766 134.61C 68.8184 133.818 70.32 132.932 71.611 132.045L 70.4776 130.397C 69.2444 131.246 67.8751 132.054 66.308 132.809L 67.1766 134.61ZM 75.5842 128.757C 76.2612 128.072 76.8504 127.386 77.3031 126.777L 75.6969 125.585C 75.2874 126.138 74.7909 126.716 74.1631 127.349L 75.5842 128.757ZM 77.3575 126.695C 77.8005 125.957 78.2735 125.194 78.7822 124.399L 77.0979 123.321C 76.5814 124.128 76.093 124.915 75.6425 125.666L 77.3575 126.695ZM 81.8298 119.896C 82.8473 118.469 83.9334 117.013 85.0926 115.538L 83.52 114.303C 82.3456 115.797 81.2315 117.29 80.2013 118.735L 81.8298 119.896ZM 88.5517 111.348C 89.7316 109.988 90.9508 108.652 92.2199 107.341L 90.7828 105.95C 89.4934 107.282 88.2375 108.658 87.0411 110.037L 88.5517 111.348ZM 96.1095 103.564C 97.4625 102.335 98.8333 101.176 100.245 100.084L 99.0207 98.5024C 97.5755 99.6208 96.1442 100.831 94.7645 102.084L 96.1095 103.564ZM 104.657 97.0009C 106.222 96.0274 107.774 95.1892 109.365 94.481L 108.551 92.6542C 106.891 93.3945 105.218 94.2975 103.601 95.3026L 104.657 97.0009ZM 114.371 92.7682C 116.129 92.3556 117.819 92.1601 119.556 92.204L 119.604 90.2046C 117.729 90.1622 115.786 90.3852 113.916 90.8207L 114.371 92.7682ZM 124.648 93.0799C 125.466 93.3498 126.246 93.671 127.053 94.0751L 127.947 92.2863C 127.075 91.8507 126.161 91.4746 125.276 91.1811L 124.648 93.0799ZM 127.053 94.0751C 127.806 94.4517 128.56 94.7881 129.274 95.0684L 130.005 93.2067C 129.333 92.9435 128.661 92.6436 127.947 92.2863L 127.053 94.0751ZM 134.06 96.3087C 135.867 96.5074 137.609 96.3483 139.088 95.9061L 138.509 93.9918C 137.226 94.3852 135.888 94.5075 134.284 94.3214L 134.06 96.3087ZM 143.491 93.3452C 144.657 92.2516 145.684 90.8474 146.477 89.3384L 144.706 88.4101C 143.985 89.7912 143.161 90.9251 142.127 91.8824L 143.491 93.3452ZM 148.222 84.7625C 148.621 83.2546 148.905 81.6252 149.064 79.997L 147.073 79.8037C 146.923 81.3569 146.668 82.8262 146.289 84.2495L 148.222 84.7625ZM 149.197 75.1808C 149.133 73.584 148.962 71.9542 148.694 70.394L 146.723 70.7339C 146.981 72.2287 147.138 73.7279 147.198 75.2596L 149.197 75.1808ZM 147.539 65.7094C 147.019 64.1298 146.364 62.5937 145.612 61.2368L 143.863 62.207C 144.567 63.4724 145.148 64.8346 145.638 66.3327L 147.539 65.7094ZM 142.662 57.2612C 142.061 56.6685 141.38 56.1111 140.697 55.663L 139.603 57.337C 140.197 57.7241 140.723 58.1549 141.256 58.6834L 142.662 57.2612ZM 140.697 55.663C 140.043 55.2404 139.585 54.7983 139.169 54.2188L 137.551 55.3934C 138.076 56.1103 138.795 56.804 139.603 57.337L 140.697 55.663ZM 137.775 50.0782C 137.616 48.6407 137.64 47.065 137.749 45.3067L 135.752 45.1835C 135.641 46.989 135.618 48.7356 135.787 50.2965L 137.775 50.0782ZM 138.164 40.4093C 138.313 38.8113 138.46 37.1395 138.55 35.4363L 136.553 35.3315C 136.465 36.9991 136.321 38.6307 136.173 40.2243L 138.164 40.4093ZM 138.597 30.3992C 138.526 28.7377 138.351 27.022 138.031 25.344L 136.067 25.7192C 136.372 27.3114 136.531 28.8815 136.599 30.4839L 138.597 30.3992ZM 136.608 20.4173C 135.998 18.8891 135.195 17.3344 134.211 15.8622L 132.549 16.9751C 133.473 18.3511 134.178 19.7189 134.751 21.1578L 136.608 20.4173ZM 130.944 11.9116C 129.819 10.7921 128.507 9.68127 127.051 8.63998L 125.888 10.2674C 127.279 11.2595 128.466 12.265 129.533 13.3286L 130.944 11.9116ZM 122.711 5.95962C 121.329 5.21969 119.81 4.49961 118.187 3.824L 117.419 5.67047C 118.997 6.32706 120.429 7.00538 121.767 7.72256L 122.711 5.95962ZM 113.49 2.08399C 111.985 1.58864 110.378 1.1135 108.693 0.66914L 108.183 2.60308C 109.84 3.03964 111.389 3.49763 112.864 3.98362L 113.49 2.08399ZM 103.839 -0.480305C 103.025 -0.652819 102.188 -0.820974 101.336 -0.982487L 100.963 0.982487C 101.804 1.14198 102.621 1.3059 103.424 1.4762L 103.839 -0.480305Z"/>
<path id="path17_fill" d="M 38 19C 38 29.4934 29.4934 38 19 38C 8.50659 38 0 29.4934 0 19C 0 8.50659 8.50659 0 19 0C 29.4934 0 38 8.50659 38 19Z"/>
<path id="path18_stroke_2x" d="M 36 19C 36 28.3888 28.3888 36 19 36L 19 40C 30.598 40 40 30.598 40 19L 36 19ZM 19 36C 9.61116 36 2 28.3888 2 19L -2 19C -2 30.598 7.40202 40 19 40L 19 36ZM 2 19C 2 9.61116 9.61116 2 19 2L 19 -2C 7.40202 -2 -2 7.40202 -2 19L 2 19ZM 19 2C 28.3888 2 36 9.61116 36 19L 40 19C 40 7.40202 30.598 -2 19 -2L 19 2Z"/>
<path id="path19_fill" d="M 29 15.5C 29 24.0604 22.5081 31 14.5 31C 6.49187 31 0 24.0604 0 15.5C 0 6.93959 6.49187 0 14.5 0C 22.5081 0 29 6.93959 29 15.5Z"/>
<path id="path20_fill" d="M 31.6311 9.56689C 31.6311 10.0861 31.4414 10.514 31.0618 10.8506C 30.6822 11.1872 30.1344 11.3949 29.4183 11.4736L 29.4183 12.6392L 28.7039 12.6392L 28.7039 11.5059C 27.8159 11.4915 27.0872 11.3555 26.5179 11.0977L 26.5179 9.96436C 26.8258 10.1147 27.1857 10.2419 27.5975 10.3457C 28.0092 10.446 28.378 10.4979 28.7039 10.5015L 28.7039 8.49268L 28.2527 8.32617C 27.6655 8.10059 27.2358 7.83203 26.9637 7.52051C 26.6951 7.2054 26.5608 6.81689 26.5608 6.35498C 26.5608 5.86084 26.7524 5.45443 27.1355 5.13574C 27.5223 4.81706 28.045 4.6237 28.7039 4.55566L 28.7039 3.65332L 29.4183 3.65332L 29.4183 4.53955C 30.1451 4.56462 30.8344 4.71143 31.4861 4.97998L 31.094 5.96289C 30.5319 5.74089 29.9733 5.6084 29.4183 5.56543L 29.4183 7.52051L 29.8265 7.67627C 30.5068 7.93766 30.9777 8.21338 31.2391 8.50342C 31.5004 8.79346 31.6311 9.14795 31.6311 9.56689ZM 30.3636 9.64746C 30.3636 9.43978 30.2902 9.26969 30.1433 9.13721C 30.0001 9.00114 29.7584 8.87044 29.4183 8.74512L 29.4183 10.4585C 30.0485 10.3618 30.3636 10.0915 30.3636 9.64746ZM 27.823 6.34424C 27.823 6.54834 27.8857 6.71842 28.011 6.85449C 28.1399 6.99056 28.3709 7.12484 28.7039 7.25732L 28.7039 5.58691C 28.4174 5.62988 28.199 5.71761 28.0486 5.8501C 27.8982 5.98258 27.823 6.1473 27.823 6.34424ZM 36.3953 12L 35.1331 12L 35.1331 6.92969C 35.1331 6.32454 35.1474 5.84473 35.1761 5.49023C 35.0937 5.57617 34.9917 5.67106 34.8699 5.7749C 34.7517 5.87874 34.3507 6.20817 33.6668 6.76318L 33.033 5.96289L 35.3426 4.14746L 36.3953 4.14746L 36.3953 12ZM 44.2962 8.07373C 44.2962 9.43799 44.076 10.4513 43.6355 11.1138C 43.1987 11.7762 42.5291 12.1074 41.6267 12.1074C 40.753 12.1074 40.0906 11.7655 39.6394 11.0815C 39.1883 10.3976 38.9627 9.39502 38.9627 8.07373C 38.9627 6.68799 39.1811 5.66748 39.618 5.01221C 40.0584 4.35335 40.728 4.02393 41.6267 4.02393C 42.504 4.02393 43.1683 4.36768 43.6194 5.05518C 44.0706 5.74268 44.2962 6.74886 44.2962 8.07373ZM 40.241 8.07373C 40.241 9.14437 40.3502 9.90885 40.5686 10.3672C 40.7906 10.8255 41.1433 11.0547 41.6267 11.0547C 42.1101 11.0547 42.4628 10.8219 42.6849 10.3564C 42.9104 9.89095 43.0232 9.13005 43.0232 8.07373C 43.0232 7.021 42.9104 6.26009 42.6849 5.79102C 42.4628 5.31836 42.1101 5.08203 41.6267 5.08203C 41.1433 5.08203 40.7906 5.31299 40.5686 5.7749C 40.3502 6.23682 40.241 7.00309 40.241 8.07373Z"/>
<path id="path21_fill" fill-rule="evenodd" d="M 4.17383 26.3816C 3.06006 24.187 2.42725 21.6724 2.42725 19C 2.42725 10.4397 8.91895 3.5 16.9272 3.5C 20.9688 3.5 24.624 5.26733 27.2534 8.11841C 24.7988 3.28296 20.0083 0 14.5 0C 6.4917 0 0 6.9397 0 15.5C 0 19.7402 1.59277 23.583 4.17383 26.3816Z"/>
<path id="path22_fill" fill-rule="evenodd" d="M 5 0C 2.243 0 0 2.243 0 5C 0 7.757 2.243 10 5 10C 7.757 10 10 7.757 10 5C 10 2.243 7.757 0 5 0ZM 5 8C 3.346 8 2 6.654 2 5C 2 3.346 3.346 2 5 2C 6.654 2 8 3.346 8 5C 8 6.654 6.654 8 5 8Z"/>
<path id="path23_stroke_2x" d="M 5 -1C 1.69072 -1 -1 1.69072 -1 5L 1 5C 1 2.79528 2.79528 1 5 1L 5 -1ZM -1 5C -1 8.30929 1.69072 11 5 11L 5 9C 2.79528 9 1 7.20472 1 5L -1 5ZM 5 11C 8.30929 11 11 8.30929 11 5L 9 5C 9 7.20472 7.20472 9 5 9L 5 11ZM 11 5C 11 1.69072 8.30929 -1 5 -1L 5 1C 7.20472 1 9 2.79528 9 5L 11 5ZM 5 7C 3.89828 7 3 6.10172 3 5L 1 5C 1 7.20628 2.79372 9 5 9L 5 7ZM 3 5C 3 3.89828 3.89828 3 5 3L 5 1C 2.79372 1 1 2.79372 1 5L 3 5ZM 5 3C 6.10172 3 7 3.89828 7 5L 9 5C 9 2.79372 7.20628 1 5 1L 5 3ZM 7 5C 7 6.10172 6.10172 7 5 7L 5 9C 7.20628 9 9 7.20628 9 5L 7 5Z"/>
<path id="path24_fill" fill-rule="evenodd" d="M 10 5C 10 2.243 7.757 0 5 0C 2.243 0 0 2.243 0 5C 0 7.757 2.243 10 5 10C 7.757 10 10 7.757 10 5ZM 5 8C 3.346 8 2 6.654 2 5C 2 3.346 3.346 2 5 2C 6.654 2 8 3.346 8 5C 8 6.654 6.654 8 5 8Z"/>
<path id="path25_stroke_2x" d="M 11 5C 11 1.69072 8.30929 -1 5 -1L 5 1C 7.20472 1 9 2.79528 9 5L 11 5ZM 5 -1C 1.69072 -1 -1 1.69072 -1 5L 1 5C 1 2.79528 2.79528 1 5 1L 5 -1ZM -1 5C -1 8.30929 1.69072 11 5 11L 5 9C 2.79528 9 1 7.20472 1 5L -1 5ZM 5 11C 8.30929 11 11 8.30929 11 5L 9 5C 9 7.20472 7.20472 9 5 9L 5 11ZM 5 7C 3.89828 7 3 6.10172 3 5L 1 5C 1 7.20628 2.79372 9 5 9L 5 7ZM 3 5C 3 3.89828 3.89828 3 5 3L 5 1C 2.79372 1 1 2.79372 1 5L 3 5ZM 5 3C 6.10172 3 7 3.89828 7 5L 9 5C 9 2.79372 7.20628 1 5 1L 5 3ZM 7 5C 7 6.10172 6.10172 7 5 7L 5 9C 7.20628 9 9 7.20628 9 5L 7 5Z"/>
<path id="path26_fill" fill-rule="evenodd" d="M 5 10C 7.757 10 10 7.757 10 5C 10 2.243 7.757 0 5 0C 2.243 0 0 2.243 0 5C 0 7.757 2.243 10 5 10ZM 5 2C 6.654 2 8 3.346 8 5C 8 6.654 6.654 8 5 8C 3.346 8 2 6.654 2 5C 2 3.346 3.346 2 5 2Z"/>
<path id="path27_stroke_2x" d="M 5 11C 8.30929 11 11 8.30929 11 5L 9 5C 9 7.20472 7.20472 9 5 9L 5 11ZM 11 5C 11 1.69072 8.30929 -1 5 -1L 5 1C 7.20472 1 9 2.79528 9 5L 11 5ZM 5 -1C 1.69072 -1 -1 1.69072 -1 5L 1 5C 1 2.79528 2.79528 1 5 1L 5 -1ZM -1 5C -1 8.30929 1.69072 11 5 11L 5 9C 2.79528 9 1 7.20472 1 5L -1 5ZM 5 3C 6.10172 3 7 3.89828 7 5L 9 5C 9 2.79372 7.20628 1 5 1L 5 3ZM 7 5C 7 6.10172 6.10172 7 5 7L 5 9C 7.20628 9 9 7.20628 9 5L 7 5ZM 5 7C 3.89828 7 3 6.10172 3 5L 1 5C 1 7.20628 2.79372 9 5 9L 5 7ZM 3 5C 3 3.89828 3.89828 3 5 3L 5 1C 2.79372 1 1 2.79372 1 5L 3 5Z"/>
<path id="path28_fill" fill-rule="evenodd" d="M 10.0002 4C 10.0002 1.795 8.20625 5.49316e-07 6.00025 5.49316e-07L 5.00025 5.49316e-07C 4.73425 5.49316e-07 4.48025 0.105 4.29325 0.293L 0.293249 4.294C -0.0977507 4.685 -0.0977507 5.318 0.293249 5.708C 0.684249 6.099 1.31625 6.099 1.70725 5.708L 5.41425 2L 6.00025 2C 7.10325 2 8.00025 2.897 8.00025 4L 8.00025 7L 8.00025 7.001L 8.00025 7.002L 8.00025 12.002C 8.00025 12.553 7.55225 13.002 7.00025 13.002L 6.00025 13.002C 5.44725 13.002 5.00025 13.45 5.00025 14.002L 5.00025 24.002C 5.00025 24.553 4.55225 25.002 4.00025 25.002L 3.00025 25.002C 2.44825 25.002 2.00025 24.553 2.00025 24.002L 2.00025 22.001C 2.00025 21.449 1.55325 21.001 1.00025 21.001C 0.44725 21.001 0.00025 21.449 0.00025 22.001L 0.00025 24.002C 0.00025 25.656 1.34625 27.002 3.00025 27.002L 4.00025 27.002C 5.65425 27.002 7.00025 25.656 7.00025 24.002L 7.00025 15.002C 8.65425 15.002 10.0002 13.656 10.0002 12.002L 10.0002 7.002C 10.0002 7.002 10.0002 7.002 10.0002 7.001C 10.0002 7.001 10.0002 7.001 10.0002 7L 10.0002 4Z"/>
<path id="path29_stroke_2x" d="M 4.29325 0.293L 5.00045 1.00002L 5.00224 0.998218L 4.29325 0.293ZM 0.293249 4.294L 1.00036 5.00111L 1.00044 5.00102L 0.293249 4.294ZM 0.293249 5.708L 1.00036 5.00089L 0.99945 4.99999L 0.293249 5.708ZM 1.70725 5.708L 2.41436 6.41511L 2.41445 6.41501L 1.70725 5.708ZM 5.41425 2L 5.41425 1L 4.99996 1L 4.70705 1.29299L 5.41425 2ZM 7.00025 15.002L 7.00025 14.002L 6.00025 14.002L 6.00025 15.002L 7.00025 15.002ZM 11.0002 4C 11.0002 1.24288 8.7587 -0.999999 6.00025 -0.999999L 6.00025 1C 7.6538 1 9.00025 2.34712 9.00025 4L 11.0002 4ZM 6.00025 -0.999999L 5.00025 -0.999999L 5.00025 1L 6.00025 1L 6.00025 -0.999999ZM 5.00025 -0.999999C 4.47012 -0.999999 3.96036 -0.790328 3.58426 -0.412219L 5.00224 0.998218C 5.00014 1.00033 4.99838 1 5.00025 1L 5.00025 -0.999999ZM 3.58605 -0.414019L -0.413946 3.58698L 1.00044 5.00102L 5.00044 1.00002L 3.58605 -0.414019ZM -0.413857 3.58689C -1.19488 4.36792 -1.19618 5.63478 -0.412952 6.41601L 0.99945 4.99999C 0.998264 4.99881 0.999082 4.99942 0.999767 5.00111C 1.00018 5.00212 0.999999 5.00219 0.999999 5.00137C 0.999999 5.00056 1.00018 5.00043 0.999903 5.00112C 0.999356 5.00246 0.998787 5.00268 1.00036 5.00111L -0.413857 3.58689ZM -0.413857 6.41511C 0.367667 7.19663 1.63283 7.19663 2.41436 6.41511L 1.00014 5.00089L 1.00036 5.00089L -0.413857 6.41511ZM 2.41445 6.41501L 6.12145 2.70701L 4.70705 1.29299L 1.00005 5.00099L 2.41445 6.41501ZM 5.41425 3L 6.00025 3L 6.00025 1L 5.41425 1L 5.41425 3ZM 6.00025 3C 6.55097 3 7.00025 3.44929 7.00025 4L 9.00025 4C 9.00025 2.34472 7.65553 1 6.00025 1L 6.00025 3ZM 7.00025 4L 7.00025 7L 9.00025 7L 9.00025 4L 7.00025 4ZM 7.00025 7L 7.00025 7.001L 9.00025 7.001L 9.00025 7L 7.00025 7ZM 7.00025 7.001L 7.00025 7.002L 9.00025 7.002L 9.00025 7.001L 7.00025 7.001ZM 7.00025 7.002L 7.00025 12.002L 9.00025 12.002L 9.00025 7.002L 7.00025 7.002ZM 7.00025 12.002L 7.00025 14.002C 8.10519 14.002 9.00025 13.1046 9.00025 12.002L 7.00025 12.002ZM 7.00025 12.002L 6.00025 12.002L 6.00025 14.002L 7.00025 14.002L 7.00025 12.002ZM 6.00025 12.002C 4.89431 12.002 4.00025 12.8984 4.00025 14.002L 6.00025 14.002L 6.00025 12.002ZM 4.00025 14.002L 4.00025 24.002L 6.00025 24.002L 6.00025 14.002L 4.00025 14.002ZM 4.00025 24.002L 4.00025 26.002C 5.10519 26.002 6.00025 25.1046 6.00025 24.002L 4.00025 24.002ZM 4.00025 24.002L 3.00025 24.002L 3.00025 26.002L 4.00025 26.002L 4.00025 24.002ZM 3.00025 24.002L 1.00025 24.002C 1.00025 25.1046 1.89531 26.002 3.00025 26.002L 3.00025 24.002ZM 3.00025 24.002L 3.00025 22.001L 1.00025 22.001L 1.00025 24.002L 3.00025 24.002ZM 3.00025 22.001C 3.00025 20.8974 2.10619 20.001 1.00025 20.001L 1.00025 22.001L 1.00025 22.001L 3.00025 22.001ZM 1.00025 20.001C -0.105686 20.001 -0.99975 20.8974 -0.99975 22.001L 1.00025 22.001L 1.00025 20.001ZM -0.99975 22.001L -0.99975 24.002L 1.00025 24.002L 1.00025 22.001L -0.99975 22.001ZM -0.99975 24.002C -0.99975 26.2083 0.793965 28.002 3.00025 28.002L 3.00025 26.002C 1.89853 26.002 1.00025 25.1037 1.00025 24.002L -0.99975 24.002ZM 3.00025 28.002L 4.00025 28.002L 4.00025 26.002L 3.00025 26.002L 3.00025 28.002ZM 4.00025 28.002C 6.20653 28.002 8.00025 26.2083 8.00025 24.002L 6.00025 24.002C 6.00025 25.1037 5.10196 26.002 4.00025 26.002L 4.00025 28.002ZM 8.00025 24.002L 8.00025 15.002L 6.00025 15.002L 6.00025 24.002L 8.00025 24.002ZM 7.00025 16.002C 9.20653 16.002 11.0002 14.2083 11.0002 12.002L 9.00025 12.002C 9.00025 13.1037 8.10196 14.002 7.00025 14.002L 7.00025 16.002ZM 11.0002 12.002L 11.0002 7.002L 9.00025 7.002L 9.00025 12.002L 11.0002 12.002ZM 10.0002 7.002C 9.00025 7.002 10.0002 7.002 11.0002 7.002C 11.0002 7.002 11.0002 7.002 11.0002 7.002C 11.0002 7.002 11.0002 7.00199 11.0002 7.00198C 11.0002 7.00197 11.0002 7.00194 11.0002 7.00187C 11.0002 7.00175 11.0002 7.0015 11.0002 7.001L 9.00025 7.001C 9.00025 7.0015 9.00025 7.00175 9.00025 7.00187C 9.00025 7.00194 9.00025 7.00197 9.00025 7.00198C 9.00025 7.00199 9.00025 7.002 9.00025 7.002C 9.00025 7.002 9.00025 7.002 9.00025 7.002C 10.0002 7.002 11.0002 7.002 10.0002 7.002ZM 10.0002 7.001C 9.00025 7.001 10.0002 7.001 11.0002 7.001C 11.0002 7.001 11.0002 7.001 11.0002 7.001C 11.0002 7.001 11.0002 7.00099 11.0002 7.00098C 11.0002 7.00097 11.0002 7.00094 11.0002 7.00087C 11.0002 7.00075 11.0002 7.0005 11.0002 7L 9.00025 7C 9.00025 7.0005 9.00025 7.00075 9.00025 7.00087C 9.00025 7.00094 9.00025 7.00097 9.00025 7.00098C 9.00025 7.00099 9.00025 7.001 9.00025 7.001C 9.00025 7.001 9.00025 7.001 9.00025 7.001C 10.0002 7.001 11.0002 7.001 10.0002 7.001ZM 11.0002 7L 11.0002 4L 9.00025 4L 9.00025 7L 11.0002 7Z"/>
<path id="path30_fill" fill-rule="evenodd" d="M 14 5.49316e-07L 13 5.49316e-07C 12.734 5.49316e-07 12.48 0.105 12.293 0.293L 9 3.587L 5.707 0.293C 5.52 0.105 5.266 5.49316e-07 5 5.49316e-07L 4 5.49316e-07C 1.794 5.49316e-07 0 1.795 0 4L 0 7C 0 7 0 7 0 7.001L 0 12.001C 0 13.655 1.346 15.001 3 15.001L 3 24.001C 3 25.655 4.346 27.001 6 27.001L 7 27.001C 7.772 27.001 8.468 26.7 9 26.221C 9.532 26.7 10.229 27.001 11 27.001L 12 27.001C 13.654 27.001 15 25.655 15 24.001L 15 15.001C 16.654 15.001 18 13.655 18 12.001L 18 7.001L 18 7L 18 4C 18 1.795 16.206 5.49316e-07 14 5.49316e-07ZM 16 12.001C 16 12.552 15.552 13.001 15 13.001L 14 13.001C 13.447 13.001 13 13.449 13 14.001L 13 24.001C 13 24.552 12.552 25.001 12 25.001L 11 25.001C 10.448 25.001 10 24.552 10 24.001L 10 18.001C 10 17.449 9.553 17.001 9 17.001C 8.447 17.001 8 17.449 8 18.001L 8 24.001C 8 24.552 7.552 25.001 7 25.001L 6 25.001C 5.448 25.001 5 24.552 5 24.001L 5 14.001C 5 13.449 4.553 13.001 4 13.001L 3 13.001C 2.448 13.001 2 12.552 2 12.001L 2 7.001L 2 7L 2 4C 2 2.897 2.898 2 4 2L 4.586 2L 8.293 5.708C 8.668 6.083 9.332 6.083 9.707 5.708L 13.414 2L 14 2C 15.103 2 16 2.897 16 4L 16 7C 16 7 16 7 16 7.001L 16 12.001Z"/>
<path id="path31_stroke_2x" d="M 12.293 0.293L 13.0002 1L 13.002 0.998218L 12.293 0.293ZM 9 3.587L 8.29279 4.294L 9 5.00143L 9.70721 4.294L 9 3.587ZM 5.707 0.293L 4.99801 0.998221L 4.99979 0.999999L 5.707 0.293ZM 3 15.001L 4 15.001L 4 14.001L 3 14.001L 3 15.001ZM 9 26.221L 9.66912 25.4778L 9 24.8754L 8.33088 25.4778L 9 26.221ZM 15 15.001L 15 14.001L 14 14.001L 14 15.001L 15 15.001ZM 4.586 2L 5.2932 1.29299L 5.00029 1L 4.586 1L 4.586 2ZM 8.293 5.708L 7.5858 6.41501L 7.58589 6.41511L 8.293 5.708ZM 9.707 5.708L 10.4141 6.41511L 10.4142 6.41501L 9.707 5.708ZM 13.414 2L 13.414 1L 12.9997 1L 12.7068 1.29299L 13.414 2ZM 14 -0.999999L 13 -0.999999L 13 1L 14 1L 14 -0.999999ZM 13 -0.999999C 12.4699 -0.999999 11.9601 -0.790328 11.584 -0.412219L 13.002 0.998218C 12.9999 1.00033 12.9981 1 13 1L 13 -0.999999ZM 11.5858 -0.414L 8.29279 2.88L 9.70721 4.294L 13.0002 0.999999L 11.5858 -0.414ZM 9.70721 2.88L 6.41421 -0.414L 4.99979 0.999999L 8.29279 4.294L 9.70721 2.88ZM 6.41599 -0.412219C 6.03989 -0.790328 5.53013 -0.999999 5 -0.999999L 5 1C 5.00187 1 5.00011 1.00033 4.99801 0.998218L 6.41599 -0.412219ZM 5 -0.999999L 4 -0.999999L 4 1L 5 1L 5 -0.999999ZM 4 -0.999999C 1.24155 -0.999999 -1 1.24288 -1 4L 1 4C 1 2.34712 2.34645 1 4 1L 4 -0.999999ZM -1 4L -1 7L 1 7L 1 4L -1 4ZM 0 7C 1 7 0 7 -1 7C -1 7 -1 7 -1 7C -1 7 -1 7.00001 -1 7.00002C -1 7.00003 -1 7.00006 -1 7.00013C -1 7.00025 -1 7.0005 -1 7.001L 1 7.001C 1 7.0005 1 7.00025 1 7.00013C 1 7.00006 1 7.00003 1 7.00002C 1 7.00001 1 7 1 7C 1 7 1 7 1 7C 0 7 -1 7 0 7ZM -1 7.001L -1 12.001L 1 12.001L 1 7.001L -1 7.001ZM -1 12.001C -1 14.2073 0.793715 16.001 3 16.001L 3 14.001C 1.89828 14.001 1 13.1027 1 12.001L -1 12.001ZM 2 15.001L 2 24.001L 4 24.001L 4 15.001L 2 15.001ZM 2 24.001C 2 26.2073 3.79372 28.001 6 28.001L 6 26.001C 4.89828 26.001 4 25.1027 4 24.001L 2 24.001ZM 6 28.001L 7 28.001L 7 26.001L 6 26.001L 6 28.001ZM 7 28.001C 7.97468 27.9802 9.00814 27.5416 9.66912 26.9642L 8.33088 25.4778C 7.92786 25.8584 7.56932 26.0218 7 26.001L 7 28.001ZM 8.33088 26.9642C 8.99208 27.5417 10.0266 27.9803 11 28.001L 11 26.001C 10.4314 26.0217 10.0719 25.8583 9.66912 25.4778L 8.33088 26.9642ZM 11 28.001L 12 28.001L 12 26.001L 11 26.001L 11 28.001ZM 12 28.001C 14.2063 28.001 16 26.2073 16 24.001L 14 24.001C 14 25.1027 13.1017 26.001 12 26.001L 12 28.001ZM 16 24.001L 16 15.001L 14 15.001L 14 24.001L 16 24.001ZM 15 16.001C 17.2063 16.001 19 14.2073 19 12.001L 17 12.001C 17 13.1027 16.1017 14.001 15 14.001L 15 16.001ZM 19 12.001L 19 7.001L 17 7.001L 17 12.001L 19 12.001ZM 19 7.001L 19 7L 17 7L 17 7.001L 19 7.001ZM 19 7L 19 4L 17 4L 17 7L 19 7ZM 19 4C 19 1.24288 16.7584 -0.999999 14 -0.999999L 14 1C 15.6536 1 17 2.34712 17 4L 19 4ZM 15 12.001L 15 14.001C 16.1049 14.001 17 13.1036 17 12.001L 15 12.001ZM 15 12.001L 14 12.001L 14 14.001L 15 14.001L 15 12.001ZM 14 12.001C 12.8941 12.001 12 12.8974 12 14.001L 14 14.001L 14 12.001ZM 12 14.001L 12 24.001L 14 24.001L 14 14.001L 12 14.001ZM 12 24.001L 12 26.001C 13.1049 26.001 14 25.1036 14 24.001L 12 24.001ZM 12 24.001L 11 24.001L 11 26.001L 12 26.001L 12 24.001ZM 11 24.001L 9 24.001C 9 25.1036 9.89506 26.001 11 26.001L 11 24.001ZM 11 24.001L 11 18.001L 9 18.001L 9 24.001L 11 24.001ZM 11 18.001C 11 16.8974 10.1059 16.001 9 16.001L 9 18.001L 11 18.001ZM 9 16.001C 7.89406 16.001 7 16.8974 7 18.001L 9 18.001L 9 16.001ZM 7 18.001L 7 24.001L 9 24.001L 9 18.001L 7 18.001ZM 7 24.001L 7 26.001C 8.10494 26.001 9 25.1036 9 24.001L 7 24.001ZM 7 24.001L 6 24.001L 6 26.001L 7 26.001L 7 24.001ZM 6 24.001L 4 24.001C 4 25.1036 4.89506 26.001 6 26.001L 6 24.001ZM 6 24.001L 6 14.001L 4 14.001L 4 24.001L 6 24.001ZM 6 14.001C 6 12.8974 5.10594 12.001 4 12.001L 4 14.001L 6 14.001ZM 4 12.001L 3 12.001L 3 14.001L 4 14.001L 4 12.001ZM 3 12.001L 1 12.001C 1 13.1036 1.89506 14.001 3 14.001L 3 12.001ZM 3 12.001L 3 7.001L 1 7.001L 1 12.001L 3 12.001ZM 3 7.001L 3 7L 1 7L 1 7.001L 3 7.001ZM 3 7L 3 4L 1 4L 1 7L 3 7ZM 3 4C 3 3.44961 3.44996 3 4 3L 4 1C 2.34604 1 1 2.34439 1 4L 3 4ZM 4 3L 4.586 3L 4.586 1L 4 1L 4 3ZM 3.8788 2.70701L 7.5858 6.41501L 9.0002 5.00099L 5.2932 1.29299L 3.8788 2.70701ZM 7.58589 6.41511C 8.35142 7.18063 9.64858 7.18063 10.4141 6.41511L 8.99989 5.00089C 9.01115 4.98964 9.01945 4.98643 9.01895 4.98662C 9.01865 4.98674 9.01668 4.98745 9.01305 4.98812C 9.00941 4.98879 9.00494 4.98925 9 4.98925C 8.99506 4.98925 8.99059 4.98879 8.98695 4.98812C 8.98332 4.98745 8.98135 4.98674 8.98105 4.98662C 8.98055 4.98643 8.98885 4.98964 9.00011 5.00089L 7.58589 6.41511ZM 10.4142 6.41501L 14.1212 2.70701L 12.7068 1.29299L 8.9998 5.00099L 10.4142 6.41501ZM 13.414 3L 14 3L 14 1L 13.414 1L 13.414 3ZM 14 3C 14.5507 3 15 3.44929 15 4L 17 4C 17 2.34472 15.6553 1 14 1L 14 3ZM 15 4L 15 7L 17 7L 17 4L 15 4ZM 16 7C 17 7 16 7 15 7C 15 7 15 7 15 7C 15 7 15 7.00001 15 7.00002C 15 7.00003 15 7.00006 15 7.00013C 15 7.00025 15 7.0005 15 7.001L 17 7.001C 17 7.0005 17 7.00025 17 7.00013C 17 7.00006 17 7.00003 17 7.00002C 17 7.00001 17 7 17 7C 17 7 17 7 17 7C 16 7 15 7 16 7ZM 15 7.001L 15 12.001L 17 12.001L 17 7.001L 15 7.001Z"/>
<path id="path32_fill" fill-rule="evenodd" d="M 9 21.001C 8.447 21.001 8 21.449 8 22.001L 8 24.002C 8 24.553 7.552 25.002 7 25.002L 6 25.002C 5.448 25.002 5 24.553 5 24.002L 5 14.002C 5 13.45 4.553 13.002 4 13.002L 3 13.002C 2.448 13.002 2 12.553 2 12.002L 2 7.002L 2 7.001L 2 4.001C 2 2.897 2.897 2.001 4 2.001L 4.586 2.001L 8.293 5.709C 8.684 6.1 9.316 6.1 9.707 5.709C 9.902 5.514 10 5.258 10 5.002C 10 4.746 9.902 4.489 9.707 4.294L 5.707 0.293C 5.52 0.105 5.266 5.49316e-07 5 5.49316e-07L 4 5.49316e-07C 1.794 5.49316e-07 0 1.795 0 4L 0 7.001C 0 7.001 0 7.001 0 7.002L 0 12.002C 0 13.656 1.346 15.002 3 15.002L 3 24.002C 3 25.656 4.346 27.002 6 27.002L 7 27.002C 8.654 27.002 10 25.656 10 24.002L 10 22.001C 10 21.449 9.553 21.001 9 21.001Z"/>
<path id="path33_stroke_2x" d="M 4.586 2.001L 5.2932 1.29399L 5.00029 1.001L 4.586 1.001L 4.586 2.001ZM 8.293 5.709L 7.5858 6.41601L 7.58589 6.41611L 8.293 5.709ZM 9.707 4.294L 8.9998 5.00102L 8.99989 5.00111L 9.707 4.294ZM 5.707 0.293L 4.99801 0.998221L 4.9998 1.00002L 5.707 0.293ZM 3 15.002L 4 15.002L 4 14.002L 3 14.002L 3 15.002ZM 9 20.001C 7.89406 20.001 7 20.8974 7 22.001L 9 22.001L 9 20.001ZM 7 22.001L 7 24.002L 9 24.002L 9 22.001L 7 22.001ZM 7 24.002L 7 26.002C 8.10494 26.002 9 25.1046 9 24.002L 7 24.002ZM 7 24.002L 6 24.002L 6 26.002L 7 26.002L 7 24.002ZM 6 24.002L 4 24.002C 4 25.1046 4.89506 26.002 6 26.002L 6 24.002ZM 6 24.002L 6 14.002L 4 14.002L 4 24.002L 6 24.002ZM 6 14.002C 6 12.8984 5.10594 12.002 4 12.002L 4 14.002L 6 14.002ZM 4 12.002L 3 12.002L 3 14.002L 4 14.002L 4 12.002ZM 3 12.002L 1 12.002C 1 13.1046 1.89506 14.002 3 14.002L 3 12.002ZM 3 12.002L 3 7.002L 1 7.002L 1 12.002L 3 12.002ZM 3 7.002L 3 7.001L 1 7.001L 1 7.002L 3 7.002ZM 3 7.001L 3 4.001L 1 4.001L 1 7.001L 3 7.001ZM 3 4.001C 3 3.44961 3.44896 3.001 4 3.001L 4 1.001C 2.34504 1.001 1 2.34439 1 4.001L 3 4.001ZM 4 3.001L 4.586 3.001L 4.586 1.001L 4 1.001L 4 3.001ZM 3.8788 2.70801L 7.5858 6.41601L 9.0002 5.00199L 5.2932 1.29399L 3.8788 2.70801ZM 7.58589 6.41611C 8.36742 7.19763 9.63258 7.19763 10.4141 6.41611L 8.99989 5.00189L 9.00011 5.00189L 7.58589 6.41611ZM 10.4141 6.41611C 10.8037 6.02648 11 5.51301 11 5.002L 9 5.002L 8.99989 5.00189L 10.4141 6.41611ZM 11 5.002C 11 4.49205 10.8045 3.97725 10.4141 3.58689L 8.99989 5.00111L 9 5.002L 11 5.002ZM 10.4142 3.58698L 6.4142 -0.414019L 4.9998 1.00002L 8.9998 5.00102L 10.4142 3.58698ZM 6.41599 -0.412219C 6.03989 -0.790328 5.53013 -0.999999 5 -0.999999L 5 1C 5.00187 1 5.00011 1.00033 4.99801 0.998218L 6.41599 -0.412219ZM 5 -0.999999L 4 -0.999999L 4 1L 5 1L 5 -0.999999ZM 4 -0.999999C 1.24155 -0.999999 -1 1.24288 -1 4L 1 4C 1 2.34712 2.34645 1 4 1L 4 -0.999999ZM -1 4L -1 7.001L 1 7.001L 1 4L -1 4ZM 0 7.001C 1 7.001 0 7.001 -1 7.001C -1 7.001 -1 7.001 -1 7.001C -1 7.001 -1 7.00101 -1 7.00102C -1 7.00103 -1 7.00106 -1 7.00112C -1 7.00125 -1 7.0015 -1 7.002L 1 7.002C 1 7.0015 1 7.00125 1 7.00112C 1 7.00106 1 7.00103 1 7.00102C 1 7.00101 1 7.001 1 7.001C 1 7.001 1 7.001 1 7.001C 0 7.001 -1 7.001 0 7.001ZM -1 7.002L -1 12.002L 1 12.002L 1 7.002L -1 7.002ZM -1 12.002C -1 14.2083 0.793715 16.002 3 16.002L 3 14.002C 1.89828 14.002 1 13.1037 1 12.002L -1 12.002ZM 2 15.002L 2 24.002L 4 24.002L 4 15.002L 2 15.002ZM 2 24.002C 2 26.2083 3.79372 28.002 6 28.002L 6 26.002C 4.89828 26.002 4 25.1037 4 24.002L 2 24.002ZM 6 28.002L 7 28.002L 7 26.002L 6 26.002L 6 28.002ZM 7 28.002C 9.20628 28.002 11 26.2083 11 24.002L 9 24.002C 9 25.1037 8.10172 26.002 7 26.002L 7 28.002ZM 11 24.002L 11 22.001L 9 22.001L 9 24.002L 11 24.002ZM 11 22.001C 11 20.8974 10.1059 20.001 9 20.001L 9 22.001L 11 22.001Z"/>
<path id="path34_fill" fill-rule="evenodd" d="M 18 7.001L 18 7L 18 4C 18 1.795 16.206 5.49316e-07 14 5.49316e-07L 13 5.49316e-07C 12.734 5.49316e-07 12.481 0.105 12.293 0.293L 9 3.587L 5.707 0.293C 5.52 0.105 5.266 5.49316e-07 5 5.49316e-07L 4 5.49316e-07C 1.794 5.49316e-07 0 1.795 0 4L 0 7C 0 7 0 7 0 7.001L 0 12.001C 0 13.655 1.346 15.001 3 15.001L 3 24.001C 3 25.655 4.346 27.001 6 27.001L 7 27.001C 7.771 27.001 8.468 26.7 9 26.221C 9.532 26.7 10.229 27.001 11 27.001L 12 27.001C 13.654 27.001 15 25.655 15 24.001L 15 15.001C 16.654 15.001 18 13.655 18 12.001L 18 7.001ZM 16 12.001C 16 12.552 15.552 13.001 15 13.001L 14 13.001C 13.447 13.001 13 13.449 13 14.001L 13 24.001C 13 24.552 12.552 25.001 12 25.001L 11 25.001C 10.448 25.001 10 24.552 10 24.001L 10 18.001C 10 17.449 9.553 17.001 9 17.001C 8.447 17.001 8 17.449 8 18.001L 8 24.001C 8 24.552 7.552 25.001 7 25.001L 6 25.001C 5.448 25.001 5 24.552 5 24.001L 5 14.001C 5 13.449 4.553 13.001 4 13.001L 3 13.001C 2.448 13.001 2 12.552 2 12.001L 2 7.001L 2 7L 2 4C 2 2.897 2.898 2 4 2L 4.586 2L 8.293 5.708C 8.668 6.083 9.332 6.083 9.707 5.708L 13.414 2L 14 2C 15.103 2 16 2.897 16 4L 16 7C 16 7 16 7 16 7.001L 16 12.001Z"/>
<path id="path35_stroke_2x" d="M 12.293 0.293L 11.5859 -0.414107L 11.5858 -0.414L 12.293 0.293ZM 9 3.587L 8.29279 4.294L 9 5.00143L 9.70721 4.294L 9 3.587ZM 5.707 0.293L 4.99801 0.998221L 4.99979 0.999999L 5.707 0.293ZM 3 15.001L 4 15.001L 4 14.001L 3 14.001L 3 15.001ZM 9 26.221L 9.66912 25.4778L 9 24.8754L 8.33088 25.4778L 9 26.221ZM 15 15.001L 15 14.001L 14 14.001L 14 15.001L 15 15.001ZM 4.586 2L 5.2932 1.29299L 5.00029 1L 4.586 1L 4.586 2ZM 8.293 5.708L 7.5858 6.41501L 7.58589 6.41511L 8.293 5.708ZM 9.707 5.708L 10.4141 6.41511L 10.4142 6.41501L 9.707 5.708ZM 13.414 2L 13.414 1L 12.9997 1L 12.7068 1.29299L 13.414 2ZM 19 7.001L 19 7L 17 7L 17 7.001L 19 7.001ZM 19 7L 19 4L 17 4L 17 7L 19 7ZM 19 4C 19 1.24288 16.7584 -0.999999 14 -0.999999L 14 1C 15.6536 1 17 2.34712 17 4L 19 4ZM 14 -0.999999L 13 -0.999999L 13 1L 14 1L 14 -0.999999ZM 13 -0.999999C 12.4683 -0.999999 11.9611 -0.789323 11.5859 -0.414107L 13.0001 1.00011L 13 1L 13 -0.999999ZM 11.5858 -0.414L 8.29279 2.88L 9.70721 4.294L 13.0002 0.999999L 11.5858 -0.414ZM 9.70721 2.88L 6.41421 -0.414L 4.99979 0.999999L 8.29279 4.294L 9.70721 2.88ZM 6.41599 -0.412219C 6.03989 -0.790328 5.53013 -0.999999 5 -0.999999L 5 1C 5.00187 1 5.00011 1.00033 4.99801 0.998218L 6.41599 -0.412219ZM 5 -0.999999L 4 -0.999999L 4 1L 5 1L 5 -0.999999ZM 4 -0.999999C 1.24155 -0.999999 -1 1.24288 -1 4L 1 4C 1 2.34712 2.34645 1 4 1L 4 -0.999999ZM -1 4L -1 7L 1 7L 1 4L -1 4ZM 0 7C 1 7 0 7 -1 7C -1 7 -1 7 -1 7C -1 7 -1 7.00001 -1 7.00002C -1 7.00003 -1 7.00006 -1 7.00013C -1 7.00025 -1 7.0005 -1 7.001L 1 7.001C 1 7.0005 1 7.00025 1 7.00013C 1 7.00006 1 7.00003 1 7.00002C 1 7.00001 1 7 1 7C 1 7 1 7 1 7C 0 7 -1 7 0 7ZM -1 7.001L -1 12.001L 1 12.001L 1 7.001L -1 7.001ZM -1 12.001C -1 14.2073 0.793715 16.001 3 16.001L 3 14.001C 1.89828 14.001 1 13.1027 1 12.001L -1 12.001ZM 2 15.001L 2 24.001L 4 24.001L 4 15.001L 2 15.001ZM 2 24.001C 2 26.2073 3.79372 28.001 6 28.001L 6 26.001C 4.89828 26.001 4 25.1027 4 24.001L 2 24.001ZM 6 28.001L 7 28.001L 7 26.001L 6 26.001L 6 28.001ZM 7 28.001C 7.97342 27.9803 9.00792 27.5417 9.66912 26.9642L 8.33088 25.4778C 7.92808 25.8583 7.56858 26.0217 7 26.001L 7 28.001ZM 8.33088 26.9642C 8.99208 27.5417 10.0266 27.9803 11 28.001L 11 26.001C 10.4314 26.0217 10.0719 25.8583 9.66912 25.4778L 8.33088 26.9642ZM 11 28.001L 12 28.001L 12 26.001L 11 26.001L 11 28.001ZM 12 28.001C 14.2063 28.001 16 26.2073 16 24.001L 14 24.001C 14 25.1027 13.1017 26.001 12 26.001L 12 28.001ZM 16 24.001L 16 15.001L 14 15.001L 14 24.001L 16 24.001ZM 15 16.001C 17.2063 16.001 19 14.2073 19 12.001L 17 12.001C 17 13.1027 16.1017 14.001 15 14.001L 15 16.001ZM 19 12.001L 19 7.001L 17 7.001L 17 12.001L 19 12.001ZM 15 12.001L 15 14.001C 16.1049 14.001 17 13.1036 17 12.001L 15 12.001ZM 15 12.001L 14 12.001L 14 14.001L 15 14.001L 15 12.001ZM 14 12.001C 12.8941 12.001 12 12.8974 12 14.001L 14 14.001L 14 12.001ZM 12 14.001L 12 24.001L 14 24.001L 14 14.001L 12 14.001ZM 12 24.001L 12 26.001C 13.1049 26.001 14 25.1036 14 24.001L 12 24.001ZM 12 24.001L 11 24.001L 11 26.001L 12 26.001L 12 24.001ZM 11 24.001L 9 24.001C 9 25.1036 9.89506 26.001 11 26.001L 11 24.001ZM 11 24.001L 11 18.001L 9 18.001L 9 24.001L 11 24.001ZM 11 18.001C 11 16.8974 10.1059 16.001 9 16.001L 9 18.001L 11 18.001ZM 9 16.001C 7.89406 16.001 7 16.8974 7 18.001L 9 18.001L 9 16.001ZM 7 18.001L 7 24.001L 9 24.001L 9 18.001L 7 18.001ZM 7 24.001L 7 26.001C 8.10494 26.001 9 25.1036 9 24.001L 7 24.001ZM 7 24.001L 6 24.001L 6 26.001L 7 26.001L 7 24.001ZM 6 24.001L 4 24.001C 4 25.1036 4.89506 26.001 6 26.001L 6 24.001ZM 6 24.001L 6 14.001L 4 14.001L 4 24.001L 6 24.001ZM 6 14.001C 6 12.8974 5.10594 12.001 4 12.001L 4 14.001L 6 14.001ZM 4 12.001L 3 12.001L 3 14.001L 4 14.001L 4 12.001ZM 3 12.001L 1 12.001C 1 13.1036 1.89506 14.001 3 14.001L 3 12.001ZM 3 12.001L 3 7.001L 1 7.001L 1 12.001L 3 12.001ZM 3 7.001L 3 7L 1 7L 1 7.001L 3 7.001ZM 3 7L 3 4L 1 4L 1 7L 3 7ZM 3 4C 3 3.44961 3.44996 3 4 3L 4 1C 2.34604 1 1 2.34439 1 4L 3 4ZM 4 3L 4.586 3L 4.586 1L 4 1L 4 3ZM 3.8788 2.70701L 7.5858 6.41501L 9.0002 5.00099L 5.2932 1.29299L 3.8788 2.70701ZM 7.58589 6.41511C 8.35142 7.18063 9.64858 7.18063 10.4141 6.41511L 8.99989 5.00089C 9.01115 4.98964 9.01945 4.98643 9.01895 4.98662C 9.01865 4.98674 9.01668 4.98745 9.01305 4.98812C 9.00941 4.98879 9.00494 4.98925 9 4.98925C 8.99506 4.98925 8.99059 4.98879 8.98695 4.98812C 8.98332 4.98745 8.98135 4.98674 8.98105 4.98662C 8.98055 4.98643 8.98885 4.98964 9.00011 5.00089L 7.58589 6.41511ZM 10.4142 6.41501L 14.1212 2.70701L 12.7068 1.29299L 8.9998 5.00099L 10.4142 6.41501ZM 13.414 3L 14 3L 14 1L 13.414 1L 13.414 3ZM 14 3C 14.5507 3 15 3.44929 15 4L 17 4C 17 2.34472 15.6553 1 14 1L 14 3ZM 15 4L 15 7L 17 7L 17 4L 15 4ZM 16 7C 17 7 16 7 15 7C 15 7 15 7 15 7C 15 7 15 7.00001 15 7.00002C 15 7.00003 15 7.00006 15 7.00013C 15 7.00025 15 7.0005 15 7.001L 17 7.001C 17 7.0005 17 7.00025 17 7.00013C 17 7.00006 17 7.00003 17 7.00002C 17 7.00001 17 7 17 7C 17 7 17 7 17 7C 16 7 15 7 16 7ZM 15 7.001L 15 12.001L 17 12.001L 17 7.001L 15 7.001Z"/>
<path id="path36_fill" d="M 13.5 8C 12.7 6 4.16667 1.83333 0 0C 4.8 4 2 11.6667 0 15C 4.83333 13.5 14.3 10 13.5 8Z"/>
<path id="path37_stroke" d="M 0.909065 -0.416655C 0.678953 -0.918717 0.0854079 -1.13918 -0.416655 -0.909065C -0.918717 -0.678953 -1.13918 -0.0854079 -0.909065 0.416655L 0.909065 -0.416655ZM 7.74074 16.1508C 8.10017 16.5701 8.73147 16.6187 9.15079 16.2593C 9.57012 15.8998 9.61868 15.2685 9.25926 14.8492L 7.74074 16.1508ZM -0.909065 0.416655C 0.0113914 2.42483 1.54857 5.62486 3.15303 8.6666C 4.74087 11.6764 6.45612 14.6521 7.74074 16.1508L 9.25926 14.8492C 8.14388 13.5479 6.52579 10.7736 4.92197 7.7334C 3.33477 4.72514 1.82194 1.57517 0.909065 -0.416655L -0.909065 0.416655Z"/>
<path id="path38_stroke" d="M 0.413803 -0.910366C -0.0889786 -1.1389 -0.681829 -0.916584 -0.910366 -0.413803C -1.1389 0.0889786 -0.916584 0.681829 -0.413803 0.910366L 0.413803 -0.910366ZM 39 9.5C 39.5523 9.5 40 9.05229 40 8.5C 40 7.94772 39.5523 7.5 39 7.5L 39 9.5ZM -0.413803 0.910366C 16.2495 8.46811 28.9601 9.4992 39 9.5L 39 7.5C 29.0399 7.5008 16.7505 6.53189 0.413803 -0.910366L -0.413803 0.910366Z"/>
</defs>
</svg>
