<svg width="220" height="224" viewBox="0 0 220 224" version="1.1" xmlns="http://www.w3.org/2000/svg" xmlns:xlink="http://www.w3.org/1999/xlink" xmlns:figma="http://www.figma.com/figma/ns">
<title>Group</title>
<desc>Created using Figma</desc>
<g id="Canvas" transform="translate(-2299 2611)" figma:type="canvas">
<g id="Group" figma:type="frame">
<g id="Ellipse 6" figma:type="vector">
<use xlink:href="#path0_fill" transform="translate(2441.5 -2609.58)" fill="#F29390"/>
</g>
<g id="Ellipse 6" figma:type="vector">
<use xlink:href="#path1_fill" transform="matrix(0.788969 -0.614433 0.614433 0.788969 2297.95 -2458.92)" fill="#EE7F7C"/>
</g>
<g id="Subtract" figma:type="vector-operation">
<use xlink:href="#path2_fill" transform="translate(2441.5 -2609.58)" fill="#EE7F7C"/>
</g>
<g id="Subtract" figma:type="vector-operation">
<use xlink:href="#path3_fill" transform="matrix(0.843211 -0.537582 0.537582 0.843211 2299.66 -2464.06)" fill="#FE9693"/>
</g>
<g id="Ellipse 6" figma:type="vector">
<mask id="mask0_outline_ins">
<use xlink:href="#path1_fill" fill="white" transform="matrix(0.788969 -0.614433 0.614433 0.788969 2297.95 -2464.81)"/>
</mask>
<g mask="url(#mask0_outline_ins)">
<use xlink:href="#path4_stroke_2x" transform="matrix(0.788969 -0.614433 0.614433 0.788969 2297.95 -2464.81)" fill="#5C5C5C"/>
</g>
</g>
<g id="Ellipse 6" figma:type="vector">
<mask id="mask1_outline_ins">
<use xlink:href="#path1_fill" fill="white" transform="matrix(0.914359 0.404904 -0.404904 0.914359 2460.2 -2623.16)"/>
</mask>
<g mask="url(#mask1_outline_ins)">
<use xlink:href="#path4_stroke_2x" transform="matrix(0.914359 0.404904 -0.404904 0.914359 2460.2 -2623.16)" fill="#5C5C5C"/>
</g>
</g>
<g id="Vector" figma:type="vector">
<use xlink:href="#path5_fill" transform="translate(2340.8 -2471.69)" fill="#FFFFFF"/>
<use xlink:href="#path6_stroke" transform="translate(2340.8 -2471.69)" fill="#525252"/>
</g>
<g id="Vector" figma:type="vector">
<use xlink:href="#path5_fill" transform="matrix(0.886307 -0.463098 0.463098 0.886307 2460.2 -2578.16)" fill="#FFFFFF"/>
<use xlink:href="#path6_stroke" transform="matrix(0.886307 -0.463098 0.463098 0.886307 2460.2 -2578.16)" fill="#525252"/>
</g>
</g>
</g>
<defs>
<path id="path0_fill" d="M 77 38.5C 77 59.763 13 99 13 99C 13 99 0 59.763 0 38.5C 0 17.237 17.237 0 38.5 0C 59.763 0 77 17.237 77 38.5Z"/>
<path id="path1_fill" d="M 77 38.5C 77 59.763 35.4833 118.559 35.4833 118.559C 35.4833 118.559 0 59.763 0 38.5C 0 17.237 17.237 0 38.5 0C 59.763 0 77 17.237 77 38.5Z"/>
<path id="path2_fill" fill-rule="evenodd" d="M 69.7964 16.072C 63.1482 12.8137 55.7693 11 48 11C 26.9492 11 8.76514 24.3145 0.21167 43.6047C 0.0744629 41.8169 0 40.1072 0 38.5C 0 17.2371 17.2371 0 38.5 0C 51.395 0 62.8093 6.3396 69.7964 16.072Z"/>
<path id="path3_fill" fill-rule="evenodd" d="M 0.211468 43.6046C 8.76505 24.3146 26.9493 11.0001 47.9998 11.0001C 55.7693 11.0001 63.148 12.8136 69.7963 16.0721C 62.8093 6.33962 51.395 4.19471e-05 38.5 0C 17.2369 4.06946e-05 -4.064e-05 17.2371 5.45935e-08 38.5001C -7.35546e-05 40.107 0.0742909 41.8169 0.211468 43.6046Z"/>
<path id="path4_stroke_2x" d="M 35.4833 118.559L 33.771 119.592L 35.352 122.212L 37.1171 119.713L 35.4833 118.559ZM 75 38.5C 75 43.3379 72.5863 50.6458 68.6945 59.147C 64.836 67.5793 59.6986 76.8258 54.5251 85.4767C 49.3542 94.1246 44.1908 102.098 40.3057 107.931C 38.3655 110.845 36.7524 113.212 35.6198 114.857C 35.0546 115.678 34.6122 116.315 34.3093 116.749C 34.1584 116.965 34.0435 117.129 33.9655 117.241C 33.9267 117.296 33.8978 117.337 33.8781 117.365C 33.8684 117.379 33.8612 117.389 33.8563 117.396C 33.854 117.399 33.8523 117.402 33.8511 117.403C 33.8505 117.404 33.8501 117.405 33.8498 117.405C 33.8496 117.405 33.8495 117.405 35.4833 118.559C 37.1171 119.713 37.1173 119.712 37.1177 119.712C 37.1181 119.711 37.1186 119.71 37.1193 119.709C 37.1207 119.708 37.1228 119.705 37.1254 119.701C 37.1306 119.694 37.1385 119.682 37.1487 119.668C 37.1689 119.639 37.1995 119.596 37.2393 119.539C 37.3184 119.426 37.4366 119.257 37.5898 119.038C 37.895 118.6 38.3446 117.953 38.9147 117.125C 40.0525 115.472 41.6829 113.08 43.6349 110.149C 47.5342 104.293 52.75 96.2385 57.9582 87.5296C 63.1639 78.8236 68.4056 69.3843 72.3315 60.812C 76.2242 52.3088 79 44.2936 79 38.5L 75 38.5ZM 35.4833 118.559C 37.1956 117.526 37.1956 117.526 37.1954 117.525C 37.1952 117.525 37.1948 117.524 37.1943 117.523C 37.1933 117.522 37.1919 117.519 37.1898 117.516C 37.1856 117.509 37.1795 117.499 37.1712 117.485C 37.1544 117.457 37.1296 117.416 37.0965 117.361C 37.0298 117.25 36.9316 117.086 36.8026 116.869C 36.5437 116.435 36.1655 115.798 35.6824 114.977C 34.7144 113.332 33.3355 110.964 31.6772 108.051C 28.3565 102.217 23.9427 94.2421 19.5225 85.5929C 15.1002 76.9406 10.7066 67.6881 7.40678 59.2508C 4.08385 50.7579 2 43.4054 2 38.5L -2 38.5C -2 44.2261 0.351563 52.1968 3.68175 60.7083C 7.03506 69.2755 11.5122 78.7087 15.9608 87.4133C 20.4114 96.121 24.8684 104.174 28.2009 110.029C 29.8691 112.96 31.2624 115.352 32.2348 117.005C 32.722 117.833 33.1062 118.48 33.367 118.918C 33.4979 119.137 33.5989 119.306 33.6665 119.419C 33.7005 119.475 33.7267 119.519 33.7439 119.548C 33.7527 119.562 33.7594 119.573 33.7639 119.581C 33.7661 119.584 33.7679 119.587 33.769 119.589C 33.7696 119.59 33.7701 119.591 33.7704 119.591C 33.7707 119.592 33.771 119.592 35.4833 118.559ZM 2 38.5C 2 18.3416 18.3416 2 38.5 2L 38.5 -2C 16.1325 -2 -2 16.1325 -2 38.5L 2 38.5ZM 38.5 2C 58.6584 2 75 18.3416 75 38.5L 79 38.5C 79 16.1325 60.8675 -2 38.5 -2L 38.5 2Z"/>
<path id="path5_fill" d="M 8.56639 15L 0 21.8478L 6.14118 27.0652L 12.9647 21.1957L 19.7882 30L 25.6252 25.4348L 19.7882 16.6304L 29 10.1087L 24.5647 3.91304L 15.7311 10.4348L 8.56639 0L 1.70588 5.86957L 8.56639 15Z"/>
<path id="path6_stroke" d="M 0 21.8478L -0.624401 21.0667C -0.857702 21.2532 -0.995426 21.5342 -0.999888 21.8329C -1.00435 22.1315 -0.875085 22.4165 -0.647461 22.6099L 0 21.8478ZM 8.56639 15L 9.1908 15.7811C 9.61307 15.4435 9.69061 14.8315 9.36586 14.3993L 8.56639 15ZM 1.70588 5.86957L 1.05579 5.10971C 0.654801 5.45278 0.589412 6.04839 0.906416 6.47028L 1.70588 5.86957ZM 8.56639 0L 9.39078 -0.566035C 9.23023 -0.799859 8.97794 -0.954506 8.69672 -0.991471C 8.4155 -1.02844 8.13182 -0.944242 7.9163 -0.759851L 8.56639 0ZM 15.7311 10.4348L 14.9067 11.0008C 15.0602 11.2244 15.2979 11.376 15.5653 11.4209C 15.8327 11.4659 16.1069 11.4003 16.3251 11.2393L 15.7311 10.4348ZM 24.5647 3.91304L 25.3778 3.33095C 25.222 3.11323 24.9853 2.96711 24.7208 2.92531C 24.4564 2.8835 24.1862 2.94951 23.9708 3.10854L 24.5647 3.91304ZM 29 10.1087L 29.5778 10.9249C 29.795 10.7711 29.942 10.5371 29.9861 10.2746C 30.0303 10.0122 29.968 9.743 29.8131 9.5266L 29 10.1087ZM 19.7882 16.6304L 19.2104 15.8143C 18.7694 16.1265 18.6562 16.7326 18.9548 17.183L 19.7882 16.6304ZM 25.6252 25.4348L 26.2413 26.2225C 26.6524 25.9009 26.7471 25.3172 26.4587 24.8822L 25.6252 25.4348ZM 19.7882 30L 18.9978 30.6126C 19.1608 30.8228 19.4007 30.9595 19.6647 30.9923C 19.9286 31.0252 20.1948 30.9516 20.4043 30.7877L 19.7882 30ZM 12.9647 21.1957L 13.7551 20.5831C 13.5872 20.3664 13.3378 20.2282 13.0651 20.2007C 12.7924 20.1732 12.5204 20.2588 12.3126 20.4375L 12.9647 21.1957ZM 6.14118 27.0652L 5.49372 27.8273C 5.86885 28.146 6.42013 28.1443 6.7933 27.8233L 6.14118 27.0652ZM 0.624401 22.6289L 9.1908 15.7811L 7.94199 14.2189L -0.624401 21.0667L 0.624401 22.6289ZM 9.36586 14.3993L 2.50535 5.26885L 0.906416 6.47028L 7.76693 15.6007L 9.36586 14.3993ZM 2.35598 6.62942L 9.21649 0.759851L 7.9163 -0.759851L 1.05579 5.10971L 2.35598 6.62942ZM 7.74201 0.566035L 14.9067 11.0008L 16.5555 9.86875L 9.39078 -0.566035L 7.74201 0.566035ZM 16.3251 11.2393L 25.1587 4.71754L 23.9708 3.10854L 15.1371 9.63028L 16.3251 11.2393ZM 23.7516 4.49514L 28.1869 10.6908L 29.8131 9.5266L 25.3778 3.33095L 23.7516 4.49514ZM 28.4222 9.29253L 19.2104 15.8143L 20.3661 17.4466L 29.5778 10.9249L 28.4222 9.29253ZM 18.9548 17.183L 24.7917 25.9873L 26.4587 24.8822L 20.6217 16.0779L 18.9548 17.183ZM 25.0091 24.6471L 19.1722 29.2123L 20.4043 30.7877L 26.2413 26.2225L 25.0091 24.6471ZM 20.5786 29.3874L 13.7551 20.5831L 12.1743 21.8082L 18.9978 30.6126L 20.5786 29.3874ZM 12.3126 20.4375L 5.48905 26.3071L 6.7933 27.8233L 13.6168 21.9538L 12.3126 20.4375ZM 6.78864 26.3031L 0.647461 21.0857L -0.647461 22.6099L 5.49372 27.8273L 6.78864 26.3031Z"/>
</defs>
</svg>
