<svg width="58" height="58" viewBox="0 0 58 58" version="1.1" xmlns="http://www.w3.org/2000/svg" xmlns:xlink="http://www.w3.org/1999/xlink" xmlns:figma="http://www.figma.com/figma/ns">
<title>Page-1</title>
<desc>Created using Figma</desc>
<g id="Canvas" transform="translate(-1366 2117)" figma:type="canvas">
<g id="Page-1" figma:type="frame">
<g id="iStock-486902554" figma:type="frame">
<g id="Group-2" figma:type="frame">
<g id="Fill-102" figma:type="vector">
<use xlink:href="#path0_fill" transform="translate(1380 -2096)" fill="#4F4F4F"/>
<mask id="mask0_outline_ins">
<use xlink:href="#path0_fill" fill="white" transform="translate(1380 -2096)"/>
</mask>
<g mask="url(#mask0_outline_ins)">
<use xlink:href="#path1_stroke_2x" transform="translate(1380 -2096)" fill="#FFFFFF"/>
</g>
</g>
<g id="Fill-103" figma:type="vector">
<use xlink:href="#path2_fill" transform="translate(1390 -2103)" fill="#4F4F4F"/>
<mask id="mask1_outline_ins">
<use xlink:href="#path2_fill" fill="white" transform="translate(1390 -2103)"/>
</mask>
<g mask="url(#mask1_outline_ins)">
<use xlink:href="#path3_stroke_2x" transform="translate(1390 -2103)" fill="#FFFFFF"/>
</g>
</g>
<g id="Fill-104" figma:type="vector">
<use xlink:href="#path4_fill" transform="translate(1370 -2103)" fill="#4F4F4F"/>
<mask id="mask2_outline_ins">
<use xlink:href="#path4_fill" fill="white" transform="translate(1370 -2103)"/>
</mask>
<g mask="url(#mask2_outline_ins)">
<use xlink:href="#path5_stroke_2x" transform="translate(1370 -2103)" fill="#FFFFFF"/>
</g>
</g>
<g id="Fill-105" figma:type="vector">
<use xlink:href="#path4_fill" transform="translate(1380 -2110)" fill="#4F4F4F"/>
<mask id="mask3_outline_ins">
<use xlink:href="#path4_fill" fill="white" transform="translate(1380 -2110)"/>
</mask>
<g mask="url(#mask3_outline_ins)">
<use xlink:href="#path5_stroke_2x" transform="translate(1380 -2110)" fill="#FFFFFF"/>
</g>
</g>
<g id="Fill-106" figma:type="vector">
<use xlink:href="#path4_fill" transform="translate(1400 -2110)" fill="#4F4F4F"/>
<mask id="mask4_outline_ins">
<use xlink:href="#path4_fill" fill="white" transform="translate(1400 -2110)"/>
</mask>
<g mask="url(#mask4_outline_ins)">
<use xlink:href="#path5_stroke_2x" transform="translate(1400 -2110)" fill="#FFFFFF"/>
</g>
</g>
<g id="Fill-107" figma:type="vector">
<use xlink:href="#path4_fill" transform="translate(1410 -2103)" fill="#4F4F4F"/>
<mask id="mask5_outline_ins">
<use xlink:href="#path4_fill" fill="white" transform="translate(1410 -2103)"/>
</mask>
<g mask="url(#mask5_outline_ins)">
<use xlink:href="#path5_stroke_2x" transform="translate(1410 -2103)" fill="#FFFFFF"/>
</g>
</g>
<g id="Fill-108" figma:type="vector">
<use xlink:href="#path4_fill" transform="translate(1390 -2117)" fill="#4F4F4F"/>
<mask id="mask6_outline_ins">
<use xlink:href="#path4_fill" fill="white" transform="translate(1390 -2117)"/>
</mask>
<g mask="url(#mask6_outline_ins)">
<use xlink:href="#path5_stroke_2x" transform="translate(1390 -2117)" fill="#FFFFFF"/>
</g>
</g>
<g id="Fill-109" figma:type="vector">
<use xlink:href="#path0_fill" transform="translate(1400 -2096)" fill="#4F4F4F"/>
<mask id="mask7_outline_ins">
<use xlink:href="#path0_fill" fill="white" transform="translate(1400 -2096)"/>
</mask>
<g mask="url(#mask7_outline_ins)">
<use xlink:href="#path1_stroke_2x" transform="translate(1400 -2096)" fill="#FFFFFF"/>
</g>
</g>
<g id="Fill-110" figma:type="vector">
<use xlink:href="#path6_fill" transform="translate(1414 -2092)" fill="#4F4F4F"/>
<mask id="mask8_outline_ins">
<use xlink:href="#path6_fill" fill="white" transform="translate(1414 -2092)"/>
</mask>
<g mask="url(#mask8_outline_ins)">
<use xlink:href="#path7_stroke_2x" transform="translate(1414 -2092)" fill="#FFFFFF"/>
</g>
</g>
<g id="Fill-111" figma:type="vector">
<use xlink:href="#path8_fill" transform="translate(1376 -2086)" fill="#4F4F4F"/>
<mask id="mask9_outline_ins">
<use xlink:href="#path8_fill" fill="white" transform="translate(1376 -2086)"/>
</mask>
<g mask="url(#mask9_outline_ins)">
<use xlink:href="#path9_stroke_2x" transform="translate(1376 -2086)" fill="#FFFFFF"/>
</g>
</g>
<g id="Fill-112" figma:type="vector">
<use xlink:href="#path10_fill" transform="translate(1366 -2092)" fill="#4F4F4F"/>
<mask id="mask10_outline_ins">
<use xlink:href="#path10_fill" fill="white" transform="translate(1366 -2092)"/>
</mask>
<g mask="url(#mask10_outline_ins)">
<use xlink:href="#path11_stroke_2x" transform="translate(1366 -2092)" fill="#FFFFFF"/>
</g>
</g>
<g id="Fill-113" figma:type="vector">
<use xlink:href="#path12_fill" transform="translate(1396 -2086)" fill="#4F4F4F"/>
<mask id="mask11_outline_ins">
<use xlink:href="#path12_fill" fill="white" transform="translate(1396 -2086)"/>
</mask>
<g mask="url(#mask11_outline_ins)">
<use xlink:href="#path13_stroke_2x" transform="translate(1396 -2086)" fill="#FFFFFF"/>
</g>
</g>
</g>
</g>
</g>
</g>
<defs>
<path id="path0_fill" fill-rule="evenodd" d="M 5 0C 2.243 0 0 2.243 0 5C 0 7.757 2.243 10 5 10C 7.757 10 10 7.757 10 5C 10 2.243 7.757 0 5 0ZM 5 8C 3.346 8 2 6.654 2 5C 2 3.346 3.346 2 5 2C 6.654 2 8 3.346 8 5C 8 6.654 6.654 8 5 8Z"/>
<path id="path1_stroke_2x" d="M 5 -1C 1.69072 -1 -1 1.69072 -1 5L 1 5C 1 2.79528 2.79528 1 5 1L 5 -1ZM -1 5C -1 8.30928 1.69072 11 5 11L 5 9C 2.79528 9 1 7.20472 1 5L -1 5ZM 5 11C 8.30928 11 11 8.30928 11 5L 9 5C 9 7.20472 7.20472 9 5 9L 5 11ZM 11 5C 11 1.69072 8.30928 -1 5 -1L 5 1C 7.20472 1 9 2.79528 9 5L 11 5ZM 5 7C 3.89828 7 3 6.10172 3 5L 1 5C 1 7.20628 2.79372 9 5 9L 5 7ZM 3 5C 3 3.89828 3.89828 3 5 3L 5 1C 2.79372 1 1 2.79372 1 5L 3 5ZM 5 3C 6.10172 3 7 3.89828 7 5L 9 5C 9 2.79372 7.20628 1 5 1L 5 3ZM 7 5C 7 6.10172 6.10172 7 5 7L 5 9C 7.20628 9 9 7.20628 9 5L 7 5Z"/>
<path id="path2_fill" fill-rule="evenodd" d="M 10 5C 10 2.243 7.757 0 5 0C 2.243 0 0 2.243 0 5C 0 7.757 2.243 10 5 10C 7.757 10 10 7.757 10 5ZM 5 8C 3.346 8 2 6.654 2 5C 2 3.346 3.346 2 5 2C 6.654 2 8 3.346 8 5C 8 6.654 6.654 8 5 8Z"/>
<path id="path3_stroke_2x" d="M 11 5C 11 1.69072 8.30928 -1 5 -1L 5 1C 7.20472 1 9 2.79528 9 5L 11 5ZM 5 -1C 1.69072 -1 -1 1.69072 -1 5L 1 5C 1 2.79528 2.79528 1 5 1L 5 -1ZM -1 5C -1 8.30928 1.69072 11 5 11L 5 9C 2.79528 9 1 7.20472 1 5L -1 5ZM 5 11C 8.30928 11 11 8.30928 11 5L 9 5C 9 7.20472 7.20472 9 5 9L 5 11ZM 5 7C 3.89828 7 3 6.10172 3 5L 1 5C 1 7.20628 2.79372 9 5 9L 5 7ZM 3 5C 3 3.89828 3.89828 3 5 3L 5 1C 2.79372 1 1 2.79372 1 5L 3 5ZM 5 3C 6.10172 3 7 3.89828 7 5L 9 5C 9 2.79372 7.20628 1 5 1L 5 3ZM 7 5C 7 6.10172 6.10172 7 5 7L 5 9C 7.20628 9 9 7.20628 9 5L 7 5Z"/>
<path id="path4_fill" fill-rule="evenodd" d="M 5 10C 7.757 10 10 7.757 10 5C 10 2.243 7.757 0 5 0C 2.243 0 0 2.243 0 5C 0 7.757 2.243 10 5 10ZM 5 2C 6.654 2 8 3.346 8 5C 8 6.654 6.654 8 5 8C 3.346 8 2 6.654 2 5C 2 3.346 3.346 2 5 2Z"/>
<path id="path5_stroke_2x" d="M 5 11C 8.30928 11 11 8.30928 11 5L 9 5C 9 7.20472 7.20472 9 5 9L 5 11ZM 11 5C 11 1.69072 8.30928 -1 5 -1L 5 1C 7.20472 1 9 2.79528 9 5L 11 5ZM 5 -1C 1.69072 -1 -1 1.69072 -1 5L 1 5C 1 2.79528 2.79528 1 5 1L 5 -1ZM -1 5C -1 8.30928 1.69072 11 5 11L 5 9C 2.79528 9 1 7.20472 1 5L -1 5ZM 5 3C 6.10172 3 7 3.89828 7 5L 9 5C 9 2.79372 7.20628 1 5 1L 5 3ZM 7 5C 7 6.10172 6.10172 7 5 7L 5 9C 7.20628 9 9 7.20628 9 5L 7 5ZM 5 7C 3.89828 7 3 6.10172 3 5L 1 5C 1 7.20628 2.79372 9 5 9L 5 7ZM 3 5C 3 3.89828 3.89828 3 5 3L 5 1C 2.79372 1 1 2.79372 1 5L 3 5Z"/>
<path id="path6_fill" fill-rule="evenodd" d="M 10.0002 4C 10.0002 1.795 8.20625 5.49316e-07 6.00025 5.49316e-07L 5.00025 5.49316e-07C 4.73425 5.49316e-07 4.48025 0.105 4.29325 0.293L 0.293249 4.294C -0.0977507 4.685 -0.0977507 5.318 0.293249 5.708C 0.684249 6.099 1.31625 6.099 1.70725 5.708L 5.41425 2L 6.00025 2C 7.10325 2 8.00025 2.897 8.00025 4L 8.00025 7L 8.00025 7.001L 8.00025 7.002L 8.00025 12.002C 8.00025 12.553 7.55225 13.002 7.00025 13.002L 6.00025 13.002C 5.44725 13.002 5.00025 13.45 5.00025 14.002L 5.00025 24.002C 5.00025 24.553 4.55225 25.002 4.00025 25.002L 3.00025 25.002C 2.44825 25.002 2.00025 24.553 2.00025 24.002L 2.00025 22.001C 2.00025 21.449 1.55325 21.001 1.00025 21.001C 0.44725 21.001 0.00025 21.449 0.00025 22.001L 0.00025 24.002C 0.00025 25.656 1.34625 27.002 3.00025 27.002L 4.00025 27.002C 5.65425 27.002 7.00025 25.656 7.00025 24.002L 7.00025 15.002C 8.65425 15.002 10.0002 13.656 10.0002 12.002L 10.0002 7.002C 10.0002 7.002 10.0002 7.002 10.0002 7.001C 10.0002 7.001 10.0002 7.001 10.0002 7L 10.0002 4Z"/>
<path id="path7_stroke_2x" d="M 4.29325 0.293L 5.00045 1.00002L 5.00224 0.998218L 4.29325 0.293ZM 0.293249 4.294L 1.00036 5.00111L 1.00044 5.00102L 0.293249 4.294ZM 0.293249 5.708L 1.00036 5.00089L 0.99945 4.99999L 0.293249 5.708ZM 1.70725 5.708L 2.41436 6.41511L 2.41445 6.41501L 1.70725 5.708ZM 5.41425 2L 5.41425 1L 4.99996 1L 4.70705 1.29299L 5.41425 2ZM 7.00025 15.002L 7.00025 14.002L 6.00025 14.002L 6.00025 15.002L 7.00025 15.002ZM 11.0002 4C 11.0002 1.24288 8.7587 -0.999999 6.00025 -0.999999L 6.00025 1C 7.6538 1 9.00025 2.34712 9.00025 4L 11.0002 4ZM 6.00025 -0.999999L 5.00025 -0.999999L 5.00025 1L 6.00025 1L 6.00025 -0.999999ZM 5.00025 -0.999999C 4.47012 -0.999999 3.96036 -0.790328 3.58426 -0.412219L 5.00224 0.998218C 5.00014 1.00033 4.99838 1 5.00025 1L 5.00025 -0.999999ZM 3.58605 -0.414019L -0.413946 3.58698L 1.00044 5.00102L 5.00044 1.00002L 3.58605 -0.414019ZM -0.413858 3.58689C -1.19488 4.36792 -1.19618 5.63478 -0.412952 6.41601L 0.99945 4.99999C 0.998264 4.99881 0.999082 4.99942 0.999767 5.00111C 1.00018 5.00212 0.999999 5.00219 0.999999 5.00137C 0.999999 5.00056 1.00018 5.00043 0.999903 5.00112C 0.999356 5.00246 0.998787 5.00268 1.00036 5.00111L -0.413858 3.58689ZM -0.413858 6.41511C 0.367667 7.19663 1.63283 7.19663 2.41436 6.41511L 1.00014 5.00089L 1.00036 5.00089L -0.413858 6.41511ZM 2.41445 6.41501L 6.12145 2.70701L 4.70705 1.29299L 1.00005 5.00099L 2.41445 6.41501ZM 5.41425 3L 6.00025 3L 6.00025 1L 5.41425 1L 5.41425 3ZM 6.00025 3C 6.55097 3 7.00025 3.44929 7.00025 4L 9.00025 4C 9.00025 2.34472 7.65553 1 6.00025 1L 6.00025 3ZM 7.00025 4L 7.00025 7L 9.00025 7L 9.00025 4L 7.00025 4ZM 7.00025 7L 7.00025 7.001L 9.00025 7.001L 9.00025 7L 7.00025 7ZM 7.00025 7.001L 7.00025 7.002L 9.00025 7.002L 9.00025 7.001L 7.00025 7.001ZM 7.00025 7.002L 7.00025 12.002L 9.00025 12.002L 9.00025 7.002L 7.00025 7.002ZM 7.00025 12.002L 7.00025 14.002C 8.10519 14.002 9.00025 13.1046 9.00025 12.002L 7.00025 12.002ZM 7.00025 12.002L 6.00025 12.002L 6.00025 14.002L 7.00025 14.002L 7.00025 12.002ZM 6.00025 12.002C 4.89431 12.002 4.00025 12.8984 4.00025 14.002L 6.00025 14.002L 6.00025 12.002ZM 4.00025 14.002L 4.00025 24.002L 6.00025 24.002L 6.00025 14.002L 4.00025 14.002ZM 4.00025 24.002L 4.00025 26.002C 5.10519 26.002 6.00025 25.1046 6.00025 24.002L 4.00025 24.002ZM 4.00025 24.002L 3.00025 24.002L 3.00025 26.002L 4.00025 26.002L 4.00025 24.002ZM 3.00025 24.002L 1.00025 24.002C 1.00025 25.1046 1.89531 26.002 3.00025 26.002L 3.00025 24.002ZM 3.00025 24.002L 3.00025 22.001L 1.00025 22.001L 1.00025 24.002L 3.00025 24.002ZM 3.00025 22.001C 3.00025 20.8974 2.10619 20.001 1.00025 20.001L 1.00025 22.001L 1.00025 22.001L 3.00025 22.001ZM 1.00025 20.001C -0.105686 20.001 -0.99975 20.8974 -0.99975 22.001L 1.00025 22.001L 1.00025 22.001L 1.00025 20.001ZM -0.99975 22.001L -0.99975 24.002L 1.00025 24.002L 1.00025 22.001L -0.99975 22.001ZM -0.99975 24.002C -0.99975 26.2083 0.793965 28.002 3.00025 28.002L 3.00025 26.002C 1.89853 26.002 1.00025 25.1037 1.00025 24.002L -0.99975 24.002ZM 3.00025 28.002L 4.00025 28.002L 4.00025 26.002L 3.00025 26.002L 3.00025 28.002ZM 4.00025 28.002C 6.20653 28.002 8.00025 26.2083 8.00025 24.002L 6.00025 24.002C 6.00025 25.1037 5.10197 26.002 4.00025 26.002L 4.00025 28.002ZM 8.00025 24.002L 8.00025 15.002L 6.00025 15.002L 6.00025 24.002L 8.00025 24.002ZM 7.00025 16.002C 9.20653 16.002 11.0002 14.2083 11.0002 12.002L 9.00025 12.002C 9.00025 13.1037 8.10197 14.002 7.00025 14.002L 7.00025 16.002ZM 11.0002 12.002L 11.0002 7.002L 9.00025 7.002L 9.00025 12.002L 11.0002 12.002ZM 10.0002 7.002C 9.00025 7.002 10.0002 7.002 11.0002 7.002C 11.0002 7.002 11.0002 7.002 11.0002 7.002C 11.0002 7.002 11.0002 7.002 11.0002 7.002C 11.0002 7.002 11.0002 7.002 11.0002 7.002C 11.0002 7.002 11.0002 7.002 11.0002 7.002C 11.0002 7.002 11.0002 7.002 11.0002 7.002C 11.0002 7.002 11.0002 7.002 11.0002 7.002C 11.0002 7.002 11.0002 7.00199 11.0002 7.00198C 11.0002 7.00197 11.0002 7.00194 11.0002 7.00187C 11.0002 7.00175 11.0002 7.0015 11.0002 7.001L 9.00025 7.001C 9.00025 7.0015 9.00025 7.00175 9.00025 7.00187C 9.00025 7.00194 9.00025 7.00197 9.00025 7.00198C 9.00025 7.00199 9.00025 7.002 9.00025 7.002C 9.00025 7.002 9.00025 7.002 9.00025 7.002C 9.00025 7.002 9.00025 7.002 9.00025 7.002C 9.00025 7.002 9.00025 7.002 9.00025 7.002C 9.00025 7.002 9.00025 7.002 9.00025 7.002C 9.00025 7.002 9.00025 7.002 9.00025 7.002C 9.00025 7.002 9.00025 7.002 9.00025 7.002C 10.0002 7.002 11.0002 7.002 10.0002 7.002ZM 10.0002 7.001C 9.00025 7.001 10.0002 7.001 11.0002 7.001C 11.0002 7.001 11.0002 7.001 11.0002 7.001C 11.0002 7.001 11.0002 7.001 11.0002 7.001C 11.0002 7.001 11.0002 7.001 11.0002 7.001C 11.0002 7.001 11.0002 7.001 11.0002 7.001C 11.0002 7.001 11.0002 7.001 11.0002 7.001C 11.0002 7.001 11.0002 7.001 11.0002 7.001C 11.0002 7.001 11.0002 7.00099 11.0002 7.00098C 11.0002 7.00097 11.0002 7.00094 11.0002 7.00088C 11.0002 7.00075 11.0002 7.0005 11.0002 7L 9.00025 7C 9.00025 7.0005 9.00025 7.00075 9.00025 7.00088C 9.00025 7.00094 9.00025 7.00097 9.00025 7.00098C 9.00025 7.00099 9.00025 7.001 9.00025 7.001C 9.00025 7.001 9.00025 7.001 9.00025 7.001C 9.00025 7.001 9.00025 7.001 9.00025 7.001C 9.00025 7.001 9.00025 7.001 9.00025 7.001C 9.00025 7.001 9.00025 7.001 9.00025 7.001C 9.00025 7.001 9.00025 7.001 9.00025 7.001C 9.00025 7.001 9.00025 7.001 9.00025 7.001C 10.0002 7.001 11.0002 7.001 10.0002 7.001ZM 11.0002 7L 11.0002 4L 9.00025 4L 9.00025 7L 11.0002 7Z"/>
<path id="path8_fill" fill-rule="evenodd" d="M 14 5.49316e-07L 13 5.49316e-07C 12.734 5.49316e-07 12.48 0.105 12.293 0.293L 9 3.587L 5.707 0.293C 5.52 0.105 5.266 5.49316e-07 5 5.49316e-07L 4 5.49316e-07C 1.794 5.49316e-07 0 1.795 0 4L 0 7C 0 7 0 7 0 7.001L 0 12.001C 0 13.655 1.346 15.001 3 15.001L 3 24.001C 3 25.655 4.346 27.001 6 27.001L 7 27.001C 7.772 27.001 8.468 26.7 9 26.221C 9.532 26.7 10.229 27.001 11 27.001L 12 27.001C 13.654 27.001 15 25.655 15 24.001L 15 15.001C 16.654 15.001 18 13.655 18 12.001L 18 7.001L 18 7L 18 4C 18 1.795 16.206 5.49316e-07 14 5.49316e-07ZM 16 12.001C 16 12.552 15.552 13.001 15 13.001L 14 13.001C 13.447 13.001 13 13.449 13 14.001L 13 24.001C 13 24.552 12.552 25.001 12 25.001L 11 25.001C 10.448 25.001 10 24.552 10 24.001L 10 18.001C 10 17.449 9.553 17.001 9 17.001C 8.447 17.001 8 17.449 8 18.001L 8 24.001C 8 24.552 7.552 25.001 7 25.001L 6 25.001C 5.448 25.001 5 24.552 5 24.001L 5 14.001C 5 13.449 4.553 13.001 4 13.001L 3 13.001C 2.448 13.001 2 12.552 2 12.001L 2 7.001L 2 7L 2 4C 2 2.897 2.898 2 4 2L 4.586 2L 8.293 5.708C 8.668 6.083 9.332 6.083 9.707 5.708L 13.414 2L 14 2C 15.103 2 16 2.897 16 4L 16 7C 16 7 16 7 16 7.001L 16 12.001Z"/>
<path id="path9_stroke_2x" d="M 12.293 0.293L 13.0002 1L 13.002 0.998218L 12.293 0.293ZM 9 3.587L 8.29279 4.294L 9 5.00143L 9.70721 4.294L 9 3.587ZM 5.707 0.293L 4.99801 0.998221L 4.99979 0.999999L 5.707 0.293ZM 3 15.001L 4 15.001L 4 14.001L 3 14.001L 3 15.001ZM 9 26.221L 9.66912 25.4778L 9 24.8754L 8.33088 25.4778L 9 26.221ZM 15 15.001L 15 14.001L 14 14.001L 14 15.001L 15 15.001ZM 4.586 2L 5.2932 1.29299L 5.00029 1L 4.586 1L 4.586 2ZM 8.293 5.708L 7.5858 6.41501L 7.58589 6.41511L 8.293 5.708ZM 9.707 5.708L 10.4141 6.41511L 10.4142 6.41501L 9.707 5.708ZM 13.414 2L 13.414 1L 12.9997 1L 12.7068 1.29299L 13.414 2ZM 14 -0.999999L 13 -0.999999L 13 1L 14 1L 14 -0.999999ZM 13 -0.999999C 12.4699 -0.999999 11.9601 -0.790328 11.584 -0.412219L 13.002 0.998218C 12.9999 1.00033 12.9981 1 13 1L 13 -0.999999ZM 11.5858 -0.414L 8.29279 2.88L 9.70721 4.294L 13.0002 0.999999L 11.5858 -0.414ZM 9.70721 2.88L 6.41421 -0.414L 4.99979 0.999999L 8.29279 4.294L 9.70721 2.88ZM 6.41599 -0.412219C 6.03989 -0.790328 5.53013 -0.999999 5 -0.999999L 5 1C 5.00187 1 5.00011 1.00033 4.99801 0.998218L 6.41599 -0.412219ZM 5 -0.999999L 4 -0.999999L 4 1L 5 1L 5 -0.999999ZM 4 -0.999999C 1.24155 -0.999999 -1 1.24288 -1 4L 1 4C 1 2.34712 2.34645 1 4 1L 4 -0.999999ZM -1 4L -1 7L 1 7L 1 4L -1 4ZM 0 7C 1 7 0 7 -1 7C -1 7 -1 7 -1 7C -1 7 -1 7 -1 7C -1 7 -1 7 -1 7C -1 7 -1 7 -1 7C -1 7 -1 7 -1 7C -1 7 -1 7 -1 7C -1 7 -1 7.00001 -1 7.00002C -1 7.00003 -1 7.00006 -1 7.00013C -1 7.00025 -1 7.0005 -1 7.001L 1 7.001C 1 7.0005 1 7.00025 1 7.00013C 1 7.00006 1 7.00003 1 7.00002C 1 7.00001 1 7 1 7C 1 7 1 7 1 7C 1 7 1 7 1 7C 1 7 1 7 1 7C 1 7 1 7 1 7C 1 7 1 7 1 7C 1 7 1 7 1 7C 0 7 -1 7 0 7ZM -1 7.001L -1 12.001L 1 12.001L 1 7.001L -1 7.001ZM -1 12.001C -1 14.2073 0.793715 16.001 3 16.001L 3 14.001C 1.89828 14.001 1 13.1027 1 12.001L -1 12.001ZM 2 15.001L 2 24.001L 4 24.001L 4 15.001L 2 15.001ZM 2 24.001C 2 26.2073 3.79372 28.001 6 28.001L 6 26.001C 4.89828 26.001 4 25.1027 4 24.001L 2 24.001ZM 6 28.001L 7 28.001L 7 26.001L 6 26.001L 6 28.001ZM 7 28.001C 7.97468 27.9802 9.00814 27.5416 9.66912 26.9642L 8.33088 25.4778C 7.92786 25.8584 7.56932 26.0218 7 26.001L 7 28.001ZM 8.33088 26.9642C 8.99208 27.5417 10.0266 27.9803 11 28.001L 11 26.001C 10.4314 26.0217 10.0719 25.8583 9.66912 25.4778L 8.33088 26.9642ZM 11 28.001L 12 28.001L 12 26.001L 11 26.001L 11 28.001ZM 12 28.001C 14.2063 28.001 16 26.2073 16 24.001L 14 24.001C 14 25.1027 13.1017 26.001 12 26.001L 12 28.001ZM 16 24.001L 16 15.001L 14 15.001L 14 24.001L 16 24.001ZM 15 16.001C 17.2063 16.001 19 14.2073 19 12.001L 17 12.001C 17 13.1027 16.1017 14.001 15 14.001L 15 16.001ZM 19 12.001L 19 7.001L 17 7.001L 17 12.001L 19 12.001ZM 19 7.001L 19 7L 17 7L 17 7.001L 19 7.001ZM 19 7L 19 4L 17 4L 17 7L 19 7ZM 19 4C 19 1.24288 16.7584 -0.999999 14 -0.999999L 14 1C 15.6536 1 17 2.34712 17 4L 19 4ZM 15 12.001L 15 14.001C 16.1049 14.001 17 13.1036 17 12.001L 15 12.001ZM 15 12.001L 14 12.001L 14 14.001L 15 14.001L 15 12.001ZM 14 12.001C 12.8941 12.001 12 12.8974 12 14.001L 14 14.001L 14 12.001ZM 12 14.001L 12 24.001L 14 24.001L 14 14.001L 12 14.001ZM 12 24.001L 12 26.001C 13.1049 26.001 14 25.1036 14 24.001L 12 24.001ZM 12 24.001L 11 24.001L 11 26.001L 12 26.001L 12 24.001ZM 11 24.001L 9 24.001C 9 25.1036 9.89506 26.001 11 26.001L 11 24.001ZM 11 24.001L 11 18.001L 9 18.001L 9 24.001L 11 24.001ZM 11 18.001C 11 16.8974 10.1059 16.001 9 16.001L 9 18.001L 11 18.001ZM 9 16.001C 7.89406 16.001 7 16.8974 7 18.001L 9 18.001L 9 16.001ZM 7 18.001L 7 24.001L 9 24.001L 9 18.001L 7 18.001ZM 7 24.001L 7 26.001C 8.10494 26.001 9 25.1036 9 24.001L 7 24.001ZM 7 24.001L 6 24.001L 6 26.001L 7 26.001L 7 24.001ZM 6 24.001L 4 24.001C 4 25.1036 4.89506 26.001 6 26.001L 6 24.001ZM 6 24.001L 6 14.001L 4 14.001L 4 24.001L 6 24.001ZM 6 14.001C 6 12.8974 5.10594 12.001 4 12.001L 4 14.001L 6 14.001ZM 4 12.001L 3 12.001L 3 14.001L 4 14.001L 4 12.001ZM 3 12.001L 1 12.001C 1 13.1036 1.89506 14.001 3 14.001L 3 12.001ZM 3 12.001L 3 7.001L 1 7.001L 1 12.001L 3 12.001ZM 3 7.001L 3 7L 1 7L 1 7.001L 3 7.001ZM 3 7L 3 4L 1 4L 1 7L 3 7ZM 3 4C 3 3.44961 3.44996 3 4 3L 4 1C 2.34604 1 1 2.34439 1 4L 3 4ZM 4 3L 4.586 3L 4.586 1L 4 1L 4 3ZM 3.8788 2.70701L 7.5858 6.41501L 9.0002 5.00099L 5.2932 1.29299L 3.8788 2.70701ZM 7.58589 6.41511C 8.35142 7.18063 9.64858 7.18063 10.4141 6.41511L 8.99989 5.00089C 9.01115 4.98964 9.01945 4.98643 9.01895 4.98662C 9.01865 4.98674 9.01668 4.98745 9.01305 4.98812C 9.0094 4.98879 9.00494 4.98925 9 4.98925C 8.99506 4.98925 8.9906 4.98879 8.98695 4.98812C 8.98332 4.98745 8.98135 4.98674 8.98105 4.98662C 8.98055 4.98643 8.98885 4.98964 9.00011 5.00089L 7.58589 6.41511ZM 10.4142 6.41501L 14.1212 2.70701L 12.7068 1.29299L 8.9998 5.00099L 10.4142 6.41501ZM 13.414 3L 14 3L 14 1L 13.414 1L 13.414 3ZM 14 3C 14.5507 3 15 3.44929 15 4L 17 4C 17 2.34472 15.6553 1 14 1L 14 3ZM 15 4L 15 7L 17 7L 17 4L 15 4ZM 16 7C 17 7 16 7 15 7C 15 7 15 7 15 7C 15 7 15 7 15 7C 15 7 15 7 15 7C 15 7 15 7 15 7C 15 7 15 7 15 7C 15 7 15 7 15 7C 15 7 15 7.00001 15 7.00002C 15 7.00003 15 7.00006 15 7.00013C 15 7.00025 15 7.0005 15 7.001L 17 7.001C 17 7.0005 17 7.00025 17 7.00013C 17 7.00006 17 7.00003 17 7.00002C 17 7.00001 17 7 17 7C 17 7 17 7 17 7C 17 7 17 7 17 7C 17 7 17 7 17 7C 17 7 17 7 17 7C 17 7 17 7 17 7C 17 7 17 7 17 7C 16 7 15 7 16 7ZM 15 7.001L 15 12.001L 17 12.001L 17 7.001L 15 7.001Z"/>
<path id="path10_fill" fill-rule="evenodd" d="M 9 21.001C 8.447 21.001 8 21.449 8 22.001L 8 24.002C 8 24.553 7.552 25.002 7 25.002L 6 25.002C 5.448 25.002 5 24.553 5 24.002L 5 14.002C 5 13.45 4.553 13.002 4 13.002L 3 13.002C 2.448 13.002 2 12.553 2 12.002L 2 7.002L 2 7.001L 2 4.001C 2 2.897 2.897 2.001 4 2.001L 4.586 2.001L 8.293 5.709C 8.684 6.1 9.316 6.1 9.707 5.709C 9.902 5.514 10 5.258 10 5.002C 10 4.746 9.902 4.489 9.707 4.294L 5.707 0.293C 5.52 0.105 5.266 5.49316e-07 5 5.49316e-07L 4 5.49316e-07C 1.794 5.49316e-07 0 1.795 0 4L 0 7.001C 0 7.001 0 7.001 0 7.002L 0 12.002C 0 13.656 1.346 15.002 3 15.002L 3 24.002C 3 25.656 4.346 27.002 6 27.002L 7 27.002C 8.654 27.002 10 25.656 10 24.002L 10 22.001C 10 21.449 9.553 21.001 9 21.001Z"/>
<path id="path11_stroke_2x" d="M 4.586 2.001L 5.2932 1.29399L 5.00029 1.001L 4.586 1.001L 4.586 2.001ZM 8.293 5.709L 7.5858 6.41601L 7.58589 6.41611L 8.293 5.709ZM 9.707 4.294L 8.9998 5.00102L 8.99989 5.00111L 9.707 4.294ZM 5.707 0.293L 4.99801 0.998221L 4.9998 1.00002L 5.707 0.293ZM 3 15.002L 4 15.002L 4 14.002L 3 14.002L 3 15.002ZM 9 20.001C 7.89406 20.001 7 20.8974 7 22.001L 9 22.001L 9 20.001ZM 7 22.001L 7 24.002L 9 24.002L 9 22.001L 7 22.001ZM 7 24.002L 7 26.002C 8.10494 26.002 9 25.1046 9 24.002L 7 24.002ZM 7 24.002L 6 24.002L 6 26.002L 7 26.002L 7 24.002ZM 6 24.002L 4 24.002C 4 25.1046 4.89506 26.002 6 26.002L 6 24.002ZM 6 24.002L 6 14.002L 4 14.002L 4 24.002L 6 24.002ZM 6 14.002C 6 12.8984 5.10594 12.002 4 12.002L 4 14.002L 6 14.002ZM 4 12.002L 3 12.002L 3 14.002L 4 14.002L 4 12.002ZM 3 12.002L 1 12.002C 1 13.1046 1.89506 14.002 3 14.002L 3 12.002ZM 3 12.002L 3 7.002L 1 7.002L 1 12.002L 3 12.002ZM 3 7.002L 3 7.001L 1 7.001L 1 7.002L 3 7.002ZM 3 7.001L 3 4.001L 1 4.001L 1 7.001L 3 7.001ZM 3 4.001C 3 3.44961 3.44896 3.001 4 3.001L 4 1.001C 2.34504 1.001 1 2.34439 1 4.001L 3 4.001ZM 4 3.001L 4.586 3.001L 4.586 1.001L 4 1.001L 4 3.001ZM 3.8788 2.70801L 7.5858 6.41601L 9.0002 5.00199L 5.2932 1.29399L 3.8788 2.70801ZM 7.58589 6.41611C 8.36742 7.19763 9.63258 7.19763 10.4141 6.41611L 8.99989 5.00189L 9.00011 5.00189L 7.58589 6.41611ZM 10.4141 6.41611C 10.8037 6.02648 11 5.51301 11 5.002L 9 5.002L 8.99989 5.00189L 10.4141 6.41611ZM 11 5.002C 11 4.49205 10.8045 3.97725 10.4141 3.58689L 8.99989 5.00111L 9 5.002L 11 5.002ZM 10.4142 3.58698L 6.41419 -0.414019L 4.9998 1.00002L 8.9998 5.00102L 10.4142 3.58698ZM 6.41599 -0.412219C 6.03989 -0.790328 5.53013 -0.999999 5 -0.999999L 5 1C 5.00187 1 5.00011 1.00033 4.99801 0.998218L 6.41599 -0.412219ZM 5 -0.999999L 4 -0.999999L 4 1L 5 1L 5 -0.999999ZM 4 -0.999999C 1.24155 -0.999999 -1 1.24288 -1 4L 1 4C 1 2.34712 2.34645 1 4 1L 4 -0.999999ZM -1 4L -1 7.001L 1 7.001L 1 4L -1 4ZM 0 7.001C 1 7.001 0 7.001 -1 7.001C -1 7.001 -1 7.001 -1 7.001C -1 7.001 -1 7.001 -1 7.001C -1 7.001 -1 7.001 -1 7.001C -1 7.001 -1 7.001 -1 7.001C -1 7.001 -1 7.001 -1 7.001C -1 7.001 -1 7.001 -1 7.001C -1 7.001 -1 7.00101 -1 7.00102C -1 7.00103 -1 7.00106 -1 7.00112C -1 7.00125 -1 7.0015 -1 7.002L 1 7.002C 1 7.0015 1 7.00125 1 7.00112C 1 7.00106 1 7.00103 1 7.00102C 1 7.00101 1 7.001 1 7.001C 1 7.001 1 7.001 1 7.001C 1 7.001 1 7.001 1 7.001C 1 7.001 1 7.001 1 7.001C 1 7.001 1 7.001 1 7.001C 1 7.001 1 7.001 1 7.001C 1 7.001 1 7.001 1 7.001C 0 7.001 -1 7.001 0 7.001ZM -1 7.002L -1 12.002L 1 12.002L 1 7.002L -1 7.002ZM -1 12.002C -1 14.2083 0.793715 16.002 3 16.002L 3 14.002C 1.89828 14.002 1 13.1037 1 12.002L -1 12.002ZM 2 15.002L 2 24.002L 4 24.002L 4 15.002L 2 15.002ZM 2 24.002C 2 26.2083 3.79372 28.002 6 28.002L 6 26.002C 4.89828 26.002 4 25.1037 4 24.002L 2 24.002ZM 6 28.002L 7 28.002L 7 26.002L 6 26.002L 6 28.002ZM 7 28.002C 9.20628 28.002 11 26.2083 11 24.002L 9 24.002C 9 25.1037 8.10172 26.002 7 26.002L 7 28.002ZM 11 24.002L 11 22.001L 9 22.001L 9 24.002L 11 24.002ZM 11 22.001C 11 20.8974 10.1059 20.001 9 20.001L 9 22.001L 11 22.001Z"/>
<path id="path12_fill" fill-rule="evenodd" d="M 18 7.001L 18 7L 18 4C 18 1.795 16.206 5.49316e-07 14 5.49316e-07L 13 5.49316e-07C 12.734 5.49316e-07 12.481 0.105 12.293 0.293L 9 3.587L 5.707 0.293C 5.52 0.105 5.266 5.49316e-07 5 5.49316e-07L 4 5.49316e-07C 1.794 5.49316e-07 0 1.795 0 4L 0 7C 0 7 0 7 0 7.001L 0 12.001C 0 13.655 1.346 15.001 3 15.001L 3 24.001C 3 25.655 4.346 27.001 6 27.001L 7 27.001C 7.771 27.001 8.468 26.7 9 26.221C 9.532 26.7 10.229 27.001 11 27.001L 12 27.001C 13.654 27.001 15 25.655 15 24.001L 15 15.001C 16.654 15.001 18 13.655 18 12.001L 18 7.001ZM 16 12.001C 16 12.552 15.552 13.001 15 13.001L 14 13.001C 13.447 13.001 13 13.449 13 14.001L 13 24.001C 13 24.552 12.552 25.001 12 25.001L 11 25.001C 10.448 25.001 10 24.552 10 24.001L 10 18.001C 10 17.449 9.553 17.001 9 17.001C 8.447 17.001 8 17.449 8 18.001L 8 24.001C 8 24.552 7.552 25.001 7 25.001L 6 25.001C 5.448 25.001 5 24.552 5 24.001L 5 14.001C 5 13.449 4.553 13.001 4 13.001L 3 13.001C 2.448 13.001 2 12.552 2 12.001L 2 7.001L 2 7L 2 4C 2 2.897 2.898 2 4 2L 4.586 2L 8.293 5.708C 8.668 6.083 9.332 6.083 9.707 5.708L 13.414 2L 14 2C 15.103 2 16 2.897 16 4L 16 7C 16 7 16 7 16 7.001L 16 12.001Z"/>
<path id="path13_stroke_2x" d="M 12.293 0.293L 11.5859 -0.414107L 11.5858 -0.414L 12.293 0.293ZM 9 3.587L 8.29279 4.294L 9 5.00143L 9.70721 4.294L 9 3.587ZM 5.707 0.293L 4.99801 0.998221L 4.99979 0.999999L 5.707 0.293ZM 3 15.001L 4 15.001L 4 14.001L 3 14.001L 3 15.001ZM 9 26.221L 9.66912 25.4778L 9 24.8754L 8.33088 25.4778L 9 26.221ZM 15 15.001L 15 14.001L 14 14.001L 14 15.001L 15 15.001ZM 4.586 2L 5.2932 1.29299L 5.00029 1L 4.586 1L 4.586 2ZM 8.293 5.708L 7.5858 6.41501L 7.58589 6.41511L 8.293 5.708ZM 9.707 5.708L 10.4141 6.41511L 10.4142 6.41501L 9.707 5.708ZM 13.414 2L 13.414 1L 12.9997 1L 12.7068 1.29299L 13.414 2ZM 19 7.001L 19 7L 17 7L 17 7.001L 19 7.001ZM 19 7L 19 4L 17 4L 17 7L 19 7ZM 19 4C 19 1.24288 16.7584 -0.999999 14 -0.999999L 14 1C 15.6536 1 17 2.34712 17 4L 19 4ZM 14 -0.999999L 13 -0.999999L 13 1L 14 1L 14 -0.999999ZM 13 -0.999999C 12.4683 -0.999999 11.9611 -0.789323 11.5859 -0.414107L 13.0001 1.00011L 13 1L 13 -0.999999ZM 11.5858 -0.414L 8.29279 2.88L 9.70721 4.294L 13.0002 0.999999L 11.5858 -0.414ZM 9.70721 2.88L 6.41421 -0.414L 4.99979 0.999999L 8.29279 4.294L 9.70721 2.88ZM 6.41599 -0.412219C 6.03989 -0.790328 5.53013 -0.999999 5 -0.999999L 5 1C 5.00187 1 5.00011 1.00033 4.99801 0.998218L 6.41599 -0.412219ZM 5 -0.999999L 4 -0.999999L 4 1L 5 1L 5 -0.999999ZM 4 -0.999999C 1.24155 -0.999999 -1 1.24288 -1 4L 1 4C 1 2.34712 2.34645 1 4 1L 4 -0.999999ZM -1 4L -1 7L 1 7L 1 4L -1 4ZM 0 7C 1 7 0 7 -1 7C -1 7 -1 7 -1 7C -1 7 -1 7 -1 7C -1 7 -1 7 -1 7C -1 7 -1 7 -1 7C -1 7 -1 7 -1 7C -1 7 -1 7 -1 7C -1 7 -1 7.00001 -1 7.00002C -1 7.00003 -1 7.00006 -1 7.00013C -1 7.00025 -1 7.0005 -1 7.001L 1 7.001C 1 7.0005 1 7.00025 1 7.00013C 1 7.00006 1 7.00003 1 7.00002C 1 7.00001 1 7 1 7C 1 7 1 7 1 7C 1 7 1 7 1 7C 1 7 1 7 1 7C 1 7 1 7 1 7C 1 7 1 7 1 7C 1 7 1 7 1 7C 0 7 -1 7 0 7ZM -1 7.001L -1 12.001L 1 12.001L 1 7.001L -1 7.001ZM -1 12.001C -1 14.2073 0.793715 16.001 3 16.001L 3 14.001C 1.89828 14.001 1 13.1027 1 12.001L -1 12.001ZM 2 15.001L 2 24.001L 4 24.001L 4 15.001L 2 15.001ZM 2 24.001C 2 26.2073 3.79372 28.001 6 28.001L 6 26.001C 4.89828 26.001 4 25.1027 4 24.001L 2 24.001ZM 6 28.001L 7 28.001L 7 26.001L 6 26.001L 6 28.001ZM 7 28.001C 7.97342 27.9803 9.00792 27.5417 9.66912 26.9642L 8.33088 25.4778C 7.92808 25.8583 7.56858 26.0217 7 26.001L 7 28.001ZM 8.33088 26.9642C 8.99208 27.5417 10.0266 27.9803 11 28.001L 11 26.001C 10.4314 26.0217 10.0719 25.8583 9.66912 25.4778L 8.33088 26.9642ZM 11 28.001L 12 28.001L 12 26.001L 11 26.001L 11 28.001ZM 12 28.001C 14.2063 28.001 16 26.2073 16 24.001L 14 24.001C 14 25.1027 13.1017 26.001 12 26.001L 12 28.001ZM 16 24.001L 16 15.001L 14 15.001L 14 24.001L 16 24.001ZM 15 16.001C 17.2063 16.001 19 14.2073 19 12.001L 17 12.001C 17 13.1027 16.1017 14.001 15 14.001L 15 16.001ZM 19 12.001L 19 7.001L 17 7.001L 17 12.001L 19 12.001ZM 15 12.001L 15 14.001C 16.1049 14.001 17 13.1036 17 12.001L 15 12.001ZM 15 12.001L 14 12.001L 14 14.001L 15 14.001L 15 12.001ZM 14 12.001C 12.8941 12.001 12 12.8974 12 14.001L 14 14.001L 14 12.001ZM 12 14.001L 12 24.001L 14 24.001L 14 14.001L 12 14.001ZM 12 24.001L 12 26.001C 13.1049 26.001 14 25.1036 14 24.001L 12 24.001ZM 12 24.001L 11 24.001L 11 26.001L 12 26.001L 12 24.001ZM 11 24.001L 9 24.001C 9 25.1036 9.89506 26.001 11 26.001L 11 24.001ZM 11 24.001L 11 18.001L 9 18.001L 9 24.001L 11 24.001ZM 11 18.001C 11 16.8974 10.1059 16.001 9 16.001L 9 18.001L 11 18.001ZM 9 16.001C 7.89406 16.001 7 16.8974 7 18.001L 9 18.001L 9 16.001ZM 7 18.001L 7 24.001L 9 24.001L 9 18.001L 7 18.001ZM 7 24.001L 7 26.001C 8.10494 26.001 9 25.1036 9 24.001L 7 24.001ZM 7 24.001L 6 24.001L 6 26.001L 7 26.001L 7 24.001ZM 6 24.001L 4 24.001C 4 25.1036 4.89506 26.001 6 26.001L 6 24.001ZM 6 24.001L 6 14.001L 4 14.001L 4 24.001L 6 24.001ZM 6 14.001C 6 12.8974 5.10594 12.001 4 12.001L 4 14.001L 6 14.001ZM 4 12.001L 3 12.001L 3 14.001L 4 14.001L 4 12.001ZM 3 12.001L 1 12.001C 1 13.1036 1.89506 14.001 3 14.001L 3 12.001ZM 3 12.001L 3 7.001L 1 7.001L 1 12.001L 3 12.001ZM 3 7.001L 3 7L 1 7L 1 7.001L 3 7.001ZM 3 7L 3 4L 1 4L 1 7L 3 7ZM 3 4C 3 3.44961 3.44996 3 4 3L 4 1C 2.34604 1 1 2.34439 1 4L 3 4ZM 4 3L 4.586 3L 4.586 1L 4 1L 4 3ZM 3.8788 2.70701L 7.5858 6.41501L 9.0002 5.00099L 5.2932 1.29299L 3.8788 2.70701ZM 7.58589 6.41511C 8.35142 7.18063 9.64858 7.18063 10.4141 6.41511L 8.99989 5.00089C 9.01115 4.98964 9.01945 4.98643 9.01895 4.98662C 9.01865 4.98674 9.01668 4.98745 9.01305 4.98812C 9.0094 4.98879 9.00494 4.98925 9 4.98925C 8.99506 4.98925 8.9906 4.98879 8.98695 4.98812C 8.98332 4.98745 8.98135 4.98674 8.98105 4.98662C 8.98055 4.98643 8.98885 4.98964 9.00011 5.00089L 7.58589 6.41511ZM 10.4142 6.41501L 14.1212 2.70701L 12.7068 1.29299L 8.9998 5.00099L 10.4142 6.41501ZM 13.414 3L 14 3L 14 1L 13.414 1L 13.414 3ZM 14 3C 14.5507 3 15 3.44929 15 4L 17 4C 17 2.34472 15.6553 1 14 1L 14 3ZM 15 4L 15 7L 17 7L 17 4L 15 4ZM 16 7C 17 7 16 7 15 7C 15 7 15 7 15 7C 15 7 15 7 15 7C 15 7 15 7 15 7C 15 7 15 7 15 7C 15 7 15 7 15 7C 15 7 15 7 15 7C 15 7 15 7.00001 15 7.00002C 15 7.00003 15 7.00006 15 7.00013C 15 7.00025 15 7.0005 15 7.001L 17 7.001C 17 7.0005 17 7.00025 17 7.00013C 17 7.00006 17 7.00003 17 7.00002C 17 7.00001 17 7 17 7C 17 7 17 7 17 7C 17 7 17 7 17 7C 17 7 17 7 17 7C 17 7 17 7 17 7C 17 7 17 7 17 7C 17 7 17 7 17 7C 16 7 15 7 16 7ZM 15 7.001L 15 12.001L 17 12.001L 17 7.001L 15 7.001Z"/>
</defs>
</svg>
