<svg width="257" height="256" viewBox="0 0 257 256" version="1.1" xmlns="http://www.w3.org/2000/svg" xmlns:xlink="http://www.w3.org/1999/xlink" xmlns:figma="http://www.figma.com/figma/ns">
<title>Group</title>
<desc>Created using Figma</desc>
<g id="Canvas" transform="translate(-2339 2597)" figma:type="canvas">
<g id="Group" figma:type="frame">
<g id="Ellipse 10" figma:type="ellipse">
<use xlink:href="#path0_fill" transform="translate(2350.5 -2596.58)" fill="#E8EAF2"/>
</g>
<g id="Group" figma:type="frame">
<g id="Rectangle 3" figma:type="rounded-rectangle">
<use xlink:href="#path1_fill" transform="matrix(0.993567 -0.113242 0.113242 0.993567 2342.5 -2392.08)" fill="#A8BAFA"/>
</g>
<g id="Rectangle 3" figma:type="rounded-rectangle">
<mask id="mask0_outline_ins">
<use xlink:href="#path1_fill" fill="white" transform="matrix(0.993567 -0.113242 0.113242 0.993567 2336.5 -2398.08)"/>
</mask>
<g mask="url(#mask0_outline_ins)">
<use xlink:href="#path2_stroke_2x" transform="matrix(0.993567 -0.113242 0.113242 0.993567 2336.5 -2398.08)" fill="#585858"/>
</g>
</g>
<g id="Add phone contact" figma:type="text">
<use xlink:href="#path3_fill" transform="matrix(0.993567 -0.113242 0.113242 0.993567 2336.5 -2398.08)" fill="#FFFFFF"/>
</g>
</g>
<g id="Group" figma:type="frame">
<g id="Rectangle 3" figma:type="rounded-rectangle">
<mask id="mask1_outline_ins">
<use xlink:href="#path1_fill" fill="white" transform="matrix(0.995725 0.0923658 -0.0923657 0.995725 2355.65 -2526.16)"/>
</mask>
<g mask="url(#mask1_outline_ins)">
<use xlink:href="#path2_stroke_2x" transform="matrix(0.995725 0.0923658 -0.0923657 0.995725 2355.65 -2526.16)" fill="#585858"/>
</g>
</g>
<g id="Group" figma:type="frame">
<g id="Rectangle 3" figma:type="rounded-rectangle">
<use xlink:href="#path1_fill" transform="matrix(0.995725 0.0923657 -0.0923657 0.995725 2360.63 -2519.06)" fill="#A8BAFA"/>
</g>
<g id="Subtract" figma:type="vector-operation">
<use xlink:href="#path4_fill" transform="matrix(0.97886 0.20453 -0.20453 0.97886 2379.7 -2537.85)" fill="#B6C5FE"/>
</g>
</g>
<g id="Add phone contact" figma:type="text">
<use xlink:href="#path3_fill" transform="matrix(0.995725 0.0923657 -0.0923657 0.995725 2358.73 -2519.06)" fill="#FFFFFF"/>
</g>
</g>
</g>
</g>
<defs>
<path id="path0_fill" d="M 245 122.5C 245 190.155 190.155 245 122.5 245C 54.8451 245 0 190.155 0 122.5C 0 54.8451 54.8451 0 122.5 0C 190.155 0 245 54.8451 245 122.5Z"/>
<path id="path1_fill" d="M 0 27C 0 12.0883 12.0883 0 27 0L 207 0C 221.912 0 234 12.0883 234 27C 234 41.9117 221.912 54 207 54L 27 54C 12.0883 54 0 41.9117 0 27Z"/>
<path id="path2_stroke_2x" d="M 27 2L 207 2L 207 -2L 27 -2L 27 2ZM 207 52L 27 52L 27 56L 207 56L 207 52ZM 27 -2C 10.9837 -2 -2 10.9837 -2 27L 2 27C 2 13.1929 13.1929 2 27 2L 27 -2ZM 207 2C 220.807 2 232 13.1929 232 27L 236 27C 236 10.9837 223.016 -2 207 -2L 207 2ZM 232 27C 232 40.8071 220.807 52 207 52L 207 56C 223.016 56 236 43.0163 236 27L 232 27ZM 27 52C 13.1929 52 2 40.8071 2 27L -2 27C -2 43.0163 10.9837 56 27 56L 27 52Z"/>
<path id="path3_fill" d="M 33.6662 32L 33.2092 30.2607L 30.194 30.2607L 29.7243 32L 26.9694 32L 29.9972 22.6816L 33.3425 22.6816L 36.4084 32L 33.6662 32ZM 32.6887 28.2041L 32.2887 26.6807C 32.1957 26.3421 32.0814 25.9041 31.946 25.3667C 31.8148 24.8293 31.728 24.4442 31.6857 24.2114C 31.6476 24.4272 31.5715 24.7827 31.4572 25.2778C 31.3472 25.7729 31.0996 26.7484 30.7145 28.2041L 32.6887 28.2041ZM 47.3751 27.1631C 47.3751 28.7119 46.9477 29.9053 46.0929 30.7432C 45.2423 31.5811 44.0447 32 42.5001 32L 39.4977 32L 39.4977 22.7197L 42.7096 22.7197C 44.1992 22.7197 45.3481 23.1006 46.1563 23.8623C 46.9688 24.624 47.3751 25.7243 47.3751 27.1631ZM 44.7726 27.252C 44.7726 26.4014 44.6033 25.7708 44.2647 25.3604C 43.9304 24.9499 43.4205 24.7446 42.735 24.7446L 42.005 24.7446L 42.005 29.9434L 42.5636 29.9434C 43.3253 29.9434 43.8839 29.7233 44.2394 29.2832C 44.5948 28.8389 44.7726 28.1618 44.7726 27.252ZM 59.002 27.1631C 59.002 28.7119 58.5746 29.9053 57.7197 30.7432C 56.8692 31.5811 55.6716 32 54.127 32L 51.1245 32L 51.1245 22.7197L 54.3364 22.7197C 55.826 22.7197 56.975 23.1006 57.7832 23.8623C 58.5957 24.624 59.002 25.7243 59.002 27.1631ZM 56.3994 27.252C 56.3994 26.4014 56.2302 25.7708 55.8916 25.3604C 55.5573 24.9499 55.0474 24.7446 54.3618 24.7446L 53.6319 24.7446L 53.6319 29.9434L 54.1904 29.9434C 54.9522 29.9434 55.5108 29.7233 55.8662 29.2832C 56.2217 28.8389 56.3994 28.1618 56.3994 27.252ZM 74.9432 25.6714C 74.9432 26.7082 74.6364 27.5101 74.0228 28.0771C 73.4134 28.64 72.5459 28.9214 71.4203 28.9214L 70.7157 28.9214L 70.7157 32L 68.2084 32L 68.2084 22.7197L 71.4203 22.7197C 72.5925 22.7197 73.4727 22.9757 74.0609 23.4878C 74.6491 23.9998 74.9432 24.7277 74.9432 25.6714ZM 70.7157 26.8774L 71.1727 26.8774C 71.5493 26.8774 71.8477 26.7716 72.0677 26.5601C 72.292 26.3485 72.4042 26.0565 72.4042 25.6841C 72.4042 25.0578 72.0572 24.7446 71.3631 24.7446L 70.7157 24.7446L 70.7157 26.8774ZM 86.4558 32L 83.9358 32L 83.9358 28.2168L 81.0222 28.2168L 81.0222 32L 78.5022 32L 78.5022 22.7197L 81.0222 22.7197L 81.0222 26.1602L 83.9358 26.1602L 83.9358 22.7197L 86.4558 22.7197L 86.4558 32ZM 99.2316 27.3472C 99.2316 28.9087 98.8487 30.0957 98.0827 30.9082C 97.3168 31.7207 96.1953 32.127 94.7185 32.127C 93.2627 32.127 92.1455 31.7186 91.3669 30.9019C 90.5925 30.0851 90.2053 28.896 90.2053 27.3345C 90.2053 25.7899 90.5904 24.6113 91.3605 23.7988C 92.135 22.9821 93.2585 22.5737 94.7312 22.5737C 96.208 22.5737 97.3273 22.9779 98.0891 23.7861C 98.8508 24.5944 99.2316 25.7814 99.2316 27.3472ZM 92.8459 27.3472C 92.8459 29.1414 93.4701 30.0386 94.7185 30.0386C 95.3532 30.0386 95.823 29.8206 96.1276 29.3848C 96.4366 28.9489 96.591 28.2697 96.591 27.3472C 96.591 26.4204 96.4344 25.737 96.1213 25.2969C 95.8124 24.8525 95.349 24.6304 94.7312 24.6304C 93.4743 24.6304 92.8459 25.536 92.8459 27.3472ZM 111.823 32L 108.535 32L 105.146 25.4619L 105.088 25.4619C 105.169 26.4902 105.209 27.2752 105.209 27.8169L 105.209 32L 102.987 32L 102.987 22.7197L 106.263 22.7197L 109.64 29.1689L 109.678 29.1689C 109.619 28.2337 109.589 27.4826 109.589 26.9155L 109.589 22.7197L 111.823 22.7197L 111.823 32ZM 121.419 32L 115.909 32L 115.909 22.7197L 121.419 22.7197L 121.419 24.7319L 118.417 24.7319L 118.417 26.1919L 121.197 26.1919L 121.197 28.2041L 118.417 28.2041L 118.417 29.9561L 121.419 29.9561L 121.419 32ZM 134.713 24.6431C 134.117 24.6431 133.651 24.8885 133.317 25.3794C 132.982 25.866 132.815 26.5389 132.815 27.3979C 132.815 29.1838 133.495 30.0767 134.853 30.0767C 135.263 30.0767 135.661 30.0195 136.046 29.9053C 136.431 29.791 136.819 29.6535 137.208 29.4927L 137.208 31.6128C 136.433 31.9556 135.557 32.127 134.58 32.127C 133.179 32.127 132.104 31.7207 131.355 30.9082C 130.611 30.0957 130.238 28.9214 130.238 27.3853C 130.238 26.4246 130.418 25.5804 130.778 24.8525C 131.142 24.1247 131.662 23.5661 132.339 23.1768C 133.021 22.7832 133.82 22.5864 134.739 22.5864C 135.742 22.5864 136.7 22.8044 137.614 23.2402L 136.846 25.2144C 136.503 25.0535 136.161 24.9181 135.818 24.8081C 135.475 24.6981 135.107 24.6431 134.713 24.6431ZM 149.787 27.3472C 149.787 28.9087 149.404 30.0957 148.638 30.9082C 147.872 31.7207 146.751 32.127 145.274 32.127C 143.818 32.127 142.701 31.7186 141.922 30.9019C 141.148 30.0851 140.761 28.896 140.761 27.3345C 140.761 25.7899 141.146 24.6113 141.916 23.7988C 142.69 22.9821 143.814 22.5737 145.286 22.5737C 146.763 22.5737 147.883 22.9779 148.644 23.7861C 149.406 24.5944 149.787 25.7814 149.787 27.3472ZM 143.401 27.3472C 143.401 29.1414 144.025 30.0386 145.274 30.0386C 145.908 30.0386 146.378 29.8206 146.683 29.3848C 146.992 28.9489 147.146 28.2697 147.146 27.3472C 147.146 26.4204 146.99 25.737 146.677 25.2969C 146.368 24.8525 145.904 24.6304 145.286 24.6304C 144.03 24.6304 143.401 25.536 143.401 27.3472ZM 162.379 32L 159.091 32L 155.701 25.4619L 155.644 25.4619C 155.724 26.4902 155.764 27.2752 155.764 27.8169L 155.764 32L 153.543 32L 153.543 22.7197L 156.818 22.7197L 160.195 29.1689L 160.233 29.1689C 160.174 28.2337 160.144 27.4826 160.144 26.9155L 160.144 22.7197L 162.379 22.7197L 162.379 32ZM 170.559 32L 168.051 32L 168.051 24.77L 165.785 24.77L 165.785 22.7197L 172.818 22.7197L 172.818 24.77L 170.559 24.77L 170.559 32ZM 181.919 32L 181.462 30.2607L 178.447 30.2607L 177.977 32L 175.222 32L 178.25 22.6816L 181.595 22.6816L 184.661 32L 181.919 32ZM 180.941 28.2041L 180.542 26.6807C 180.448 26.3421 180.334 25.9041 180.199 25.3667C 180.068 24.8293 179.981 24.4442 179.939 24.2114C 179.9 24.4272 179.824 24.7827 179.71 25.2778C 179.6 25.7729 179.352 26.7484 178.967 28.2041L 180.941 28.2041ZM 191.883 24.6431C 191.286 24.6431 190.821 24.8885 190.486 25.3794C 190.152 25.866 189.985 26.5389 189.985 27.3979C 189.985 29.1838 190.664 30.0767 192.022 30.0767C 192.433 30.0767 192.831 30.0195 193.216 29.9053C 193.601 29.791 193.988 29.6535 194.377 29.4927L 194.377 31.6128C 193.603 31.9556 192.727 32.127 191.749 32.127C 190.349 32.127 189.274 31.7207 188.525 30.9082C 187.78 30.0957 187.408 28.9214 187.408 27.3853C 187.408 26.4246 187.588 25.5804 187.947 24.8525C 188.311 24.1247 188.832 23.5661 189.509 23.1768C 190.19 22.7832 190.99 22.5864 191.908 22.5864C 192.911 22.5864 193.87 22.8044 194.784 23.2402L 194.016 25.2144C 193.673 25.0535 193.33 24.9181 192.987 24.8081C 192.645 24.6981 192.276 24.6431 191.883 24.6431ZM 202.367 32L 199.86 32L 199.86 24.77L 197.594 24.77L 197.594 22.7197L 204.627 22.7197L 204.627 24.77L 202.367 24.77L 202.367 32Z"/>
<path id="path4_fill" fill-rule="evenodd" d="M 0.000235091 69.0191C 5.16238 72.5394 11.5643 74.2942 18.2595 73.531L 197.102 53.1475C 211.918 51.4588 222.559 38.0795 220.871 23.2635C 219.539 11.5799 210.937 2.49212 200.093 1.184e-05C 206.355 4.26962 210.792 11.1361 211.718 19.2566C 213.406 34.0726 202.765 47.4519 187.949 49.1406L 9.10683 69.5241C 5.9747 69.881 2.90708 69.6872 0.000235091 69.0191Z"/>
</defs>
</svg>
